<?xml version="1.0" encoding="UTF-8"?>
<svg id="Layer_2" xmlns="http://www.w3.org/2000/svg" viewBox="0 0 773.09 433.55">
  <defs>
    <style>
      .cls-1 {
        fill: #ffffff;
      }
      .cls-2 {
        opacity: 0.44;
      }
    </style>
  </defs>
  <g id="objects">
    <g class="cls-1 cls-2">
      <path d="M454.88,58.2c-.45,3.3-.68,6.71-1.42,10.01-1.1,4.94-1.68,9.89-1.6,14.93.04,2.87-.27,5.69-1,8.46-1.01,3.86-2.66,7.43-5.12,10.55-2.7,3.42-5.07,7.05-7.34,10.75-2.14,3.48-5.09,5.95-8.66,7.77-1.87.95-3.73,1.94-5.63,2.84-2.77,1.31-3.84,3.53-4.03,6.51-.48,7.67,1.09,14.99,3.55,22.16,1.41,4.1,3,8.14,4.41,12.24.57,1.66.97,3.39,1.32,5.11.46,2.24-.17,3.23-2.37,4-1.55.54-3.18.66-4.78.97-9.34,1.82-18,5.44-26.38,9.84-9.58,5.03-18.43,11.18-27.17,17.52-6.43,4.67-13.04,9.06-20.33,12.31-2.85,1.27-5.78,2.37-8.95,2.54-2.32.13-2.97-.71-2.22-2.95.85-2.53,2.36-4.73,3.78-6.95,3.36-5.26,7.18-10.22,10.26-15.66,4.78-8.44,8.52-17.26,10-26.92.69-4.51,1.07-9.04.26-13.58-.61-3.43-2.48-5.58-6.01-6.29-3.21-.65-6.46-.83-9.71-.9-3.32-.07-6.65-.1-9.9-.97-.65-.17-1.3-.38-1.93-.64-3.14-1.33-4.12-2.92-3.95-6.31.05-1.09.12-2.17.34-3.24.33-1.56.19-3.1-.23-4.63-.15-.55-.31-1.03-.75-1.39-1.77-1.45-2.08-3.26-1.15-5.26.47-1,.52-1.73-.25-2.71-.91-1.17-1.34-2.61-.42-4.14.48-.8.73-1.75,1.07-2.63.63-1.65.4-2.47-1.02-3.47-1.07-.75-2.3-1.16-3.55-1.46-.99-.24-1.97-.52-2.88-.98-2.47-1.26-3.26-3.1-2.37-5.71,1.1-3.22,2.71-6.21,4.28-9.21,1.42-2.7,2.87-5.39,4.42-8.01,1.25-2.12,2.14-4.37,3.08-6.62.88-2.09.4-3.88-.71-5.53-1.26-1.89-1.64-3.68-.79-5.89,1.34-3.47,2.43-7.04,3.63-10.57.69-2.04.27-3.25-1.53-4.38-.06-.04-.12-.07-.18-.1-5.74-2.9-8.22-7.82-8.61-14.01-.3-4.78,1.07-8.97,4.44-12.46,1.41-1.46,2.83-2.93,4.04-4.58.24-.32.54-.61.86-.86,3.23-2.47,6.33-5.17,9.76-7.34,4.71-2.98,9.81-5.25,15.32-6.36,6.45-1.29,12.92-2.44,19.36-3.79,2.48-.52,4.86-.03,7.27.19,4.93.44,9.79,1.4,14.68,2.17,1.27.2,2.54.26,3.84.14,7.4-.69,14.13,1.22,20.13,5.57,2.82,2.04,5.84,3.68,9.02,5.07,4.65,2.03,8.86,4.69,12.31,8.47,4.15,4.54,6.56,9.91,7.64,15.92.48,2.67.88,5.35,1.33,8.03.24,1.4.56,2.78,1.08,4.12,1.03,2.64.87,5.47,1.39,8.29Z"/>
      <path class="cls-1" d="M672.02,375.89c-.24.62-.12,1.29-.12,1.95,0,13.66,0,27.31,0,40.97,0,1.63,0,3.26.23,4.88.5,3.6,1.46,7.01,4.44,9.86h-24.48c-.03-.09-.13-.28-.09-.33,3.14-3.51,3.86-7.81,4.08-12.29.04-.88.04-1.77.04-2.65,0-33.43,0-66.86,0-100.29,0-2.86-.14-5.7-.87-8.48-.54-2.05-1.3-4-2.83-5.56-.18-.18-.42-.37-.25-.74.45-.32,1-.16,1.51-.16,5.43-.01,10.87,0,16.3,0,2.24,0,1.9-.05,1.91,2.03.01,2.28,0,4.55,0,7.2,1.96-2.06,3.6-3.84,5.54-5.29,4.9-3.64,10.42-5.39,16.49-5.61,9.24-.33,17.25,2.48,23.64,9.31,4.02,4.3,6.64,9.44,7.94,15.16,3.05,13.4,1.36,26.06-6.42,37.6-3.76,5.58-8.38,10.39-14.52,13.38-10.44,5.09-20.9,5.09-31.24-.43-.36-.19-.7-.39-1.06-.57-.04-.02-.13.04-.24.07ZM671.9,343.11c0,4.41.01,8.83,0,13.24-.01,2.46.27,4.88.95,7.24,1.22,4.17,3.51,7.59,7.71,9.14,6.1,2.26,12.14,2.03,17.77-1.51,5.21-3.27,8.08-8.29,9.87-14,2.19-6.98,2.49-14.14,1.87-21.36-.48-5.52-1.77-10.85-4.46-15.74-3.46-6.32-9.54-11.51-19.29-10.45-5.29.58-9.31,3.11-11.73,7.97-2.05,4.11-2.65,8.52-2.68,13.04-.04,4.14,0,8.29,0,12.43Z"/>
      <path class="cls-1" d="M156.98,378.77h-24.78c-.02-.21-.09-.39-.03-.45,2.49-2.48,3.42-5.64,3.89-8.98.28-2.02.39-4.05.39-6.09-.01-34.58,0-69.16-.01-103.74,0-3.07-.33-6.09-1.14-9.06-.54-1.96-1.56-3.68-2.67-5.35.61-.52,1.17-.33,1.68-.33,5.43-.02,10.86-.01,16.3-.01,2.1,0,1.83-.09,1.83,1.88,0,18.68,0,37.36,0,56.05,0,2.82,0,5.65,0,8.69,1.11-.48,1.74-1.2,2.45-1.76,4.48-3.52,9.39-6.2,14.98-7.47,5.18-1.18,10.39-1.14,15.51.28,6.34,1.76,10.76,5.84,13.47,11.79,1.97,4.31,2.88,8.9,3.23,13.59.17,2.3.2,4.61.2,6.92.02,9.65,0,19.29.02,28.94,0,1.76.08,3.54.29,5.28.43,3.55,1.44,6.9,4.05,9.48-.38.65-.91.41-1.34.41-5.57.02-11.14.02-16.7,0-1.85,0-1.86-.02-1.86-1.92,0-14.4,0-28.8,0-43.21,0-4.69-.28-9.35-1.36-13.95-1.14-4.83-3.99-7.9-8.81-9.11-.79-.2-1.59-.37-2.4-.45-2.92-.29-5.83-.27-8.7.44-5.52,1.38-9.06,4.93-11.05,10.16-1.32,3.47-1.91,7.1-1.94,10.77-.08,11.41-.05,22.82-.01,34.24,0,1.55.2,3.12.47,4.65.51,2.98,1.54,5.76,4.02,8.29Z"/>
      <path class="cls-1" d="M568.71,378.85c-6.98,0-13.7-.03-20.41.03-1.12,0-1.54-.67-2.06-1.36-4.11-5.49-8.22-10.97-12.33-16.46-5.37-7.17-10.74-14.34-16.11-21.51-.39-.52-.81-1.03-1.17-1.5-.43.04-.37.3-.37.48,0,9.24,0,18.48.04,27.72.01,2.59.48,5.13,1.31,7.6.59,1.76,1.65,3.24,2.97,4.86h-24.87c1.32-1.64,2.48-3.11,3.14-4.91.95-2.58,1.3-5.26,1.48-7.97.06-.88.04-1.77.04-2.65,0-34.45,0-68.89.01-103.34,0-2.11-.13-4.21-.44-6.29-.46-3.12-1.47-6.02-3.68-8.33.4-.66.93-.42,1.35-.42,5.57-.02,11.14-.01,16.7-.01,2.24,0,1.93-.11,1.93,2,0,27.79,0,55.57,0,83.36v2.46c.28.24.38.21.5.11,5.53-4.81,11.23-9.44,16.12-14.94,1.85-2.08,3.6-4.24,4.81-6.79.47-.99.8-2.03.85-3.12.08-1.88-.53-3.45-2.37-4.41,1.55-.49,19.59-.66,24.39-.28.23.73-.44.91-.8,1.23-9.34,8.09-18.68,16.17-28.03,24.26-1.3,1.12-1.29,1.13-.22,2.5,11.84,15.04,23.69,30.08,35.51,45.13.57.73,1.31,1.36,1.69,2.58Z"/>
      <path class="cls-1" d="M298.56,303.45h22.38c.19.43-.11.53-.33.63-4.15,1.77-6.85,5-8.88,8.88-1.01,1.93-1.75,3.97-2.42,6.03-6.3,19.41-12.59,38.83-18.89,58.24-.52,1.61-.52,1.62-2.25,1.62-2.65,0-5.3,0-7.95,0-1.69,0-1.7-.01-2.19-1.65-3.58-12.09-7.15-24.19-10.72-36.28-1.11-3.77-2.22-7.55-3.33-11.32-.07-.25-.21-.48-.45-1.01-.28.64-.52,1.06-.66,1.51-4.92,15.3-9.84,30.59-14.75,45.9-.91,2.84-.88,2.85-3.81,2.85-2.44,0-4.89-.06-7.33.03-1.18.04-1.61-.39-1.94-1.5-4.42-14.95-8.9-29.89-13.37-44.83-2.02-6.75-3.93-13.55-6.89-19.98-1.56-3.39-3.31-6.65-6.18-9.32,8.48-.21,16.89-.2,25.26-.2.28.83-.36.94-.64,1.24-1.54,1.62-2.17,3.43-1.92,5.74.44,4.17,1.97,8.03,3.12,11.99,3.41,11.72,6.95,23.4,10.44,35.1.17.58.38,1.15.63,1.92.88-1.89,1.33-3.71,1.9-5.48,5.17-16.07,10.33-32.15,15.49-48.22q.64-1.98,2.79-1.98c1.49,0,2.99-.01,4.48,0,1.81.02,1.49-.21,2.03,1.58,1.42,4.67,2.76,9.36,4.14,14.05,3.76,12.75,7.51,25.49,11.28,38.24.17.57.19,1.22.79,1.68,2.91-8.78,5.78-17.54,8.72-26.28,2.27-6.75,4.43-13.52,6.14-20.44.82-3.31-.62-7.14-4.17-8.13-.18-.05-.35-.17-.52-.26,0-.11.02-.22.03-.33Z"/>
      <path class="cls-1" d="M605.17,300.54c22.98-.5,37.89,16.97,40.21,33.87,1.01,7.38.59,14.69-2.27,21.62-5.49,13.35-15.08,22.19-29.48,24.74-16.69,2.95-32.06-2.5-42.18-17.72-5.16-7.76-6.73-16.47-6.11-25.65.55-8.14,3.15-15.52,8.43-21.83,8.4-10.03,19.14-15.07,31.39-15.03ZM628.07,343.75c.02-5.6-.57-11.32-2.18-16.9-1.62-5.62-4.07-10.77-8.4-14.87-6.98-6.63-19.08-6.64-25.81.32-4.39,4.54-6.96,9.98-8.14,16.1-1.52,7.91-1.2,15.83.51,23.66,1.52,6.98,4.69,13.12,9.98,18.06,7.56,7.07,19.82,6.5,26.2-.72,1.81-2.05,3.29-4.31,4.43-6.79,2.73-5.92,3.49-12.22,3.42-18.86Z"/>
      <path class="cls-1" d="M.42,361.97c0-3.12,0-6.25,0-9.37,0-.51-.12-1.13.71-1.21.74-.07,1.1.25,1.32.94.73,2.26,1.65,4.45,2.8,6.54,4.87,8.91,12.48,13.27,22.53,13.59,4.96.16,9.59-.92,13.63-3.91,6.72-4.98,8.5-14.06,5.06-20.14-.71-1.26-1.61-2.29-2.86-3.09-7.2-4.61-14.43-9.15-22.06-13.03-5.22-2.66-10.04-5.95-14.09-10.26-3.28-3.49-5.73-7.42-6.3-12.28-.77-6.66,1.21-12.47,5.64-17.46,5.19-5.84,11.76-8.99,19.46-10,7.03-.92,13.78.34,20.47,2.29,2.8.82,5.53,1.84,8.25,2.87.88.34,1.28.75,1.25,1.75-.1,4.82-.11,9.65-.21,14.47,0,.51.37,1.33-.58,1.49-.8.13-.97-.6-1.28-1.1-2.26-3.66-4.83-7.06-8.12-9.87-4.45-3.8-9.54-5.92-15.47-5.67-4.86.2-8.94,2.1-12.07,5.87-3.75,4.52-3.8,10.38-.15,14.95,2.59,3.24,6.03,5.44,9.57,7.48,3.35,1.93,6.93,3.42,10.43,5.05,4.43,2.06,8.78,4.29,12.78,7.11,5.12,3.6,9.32,8.01,10.81,14.29,2.23,9.41.55,18.1-5.69,25.63-5.4,6.51-12.51,10.06-20.8,11.3-9.76,1.46-19.02-.57-28-4.3-1.94-.81-3.79-1.81-5.73-2.62-1.29-.53-1.81-1.28-1.74-2.75.13-2.85.04-5.7.04-8.55.13,0,.25,0,.38,0Z"/>
      <path class="cls-1" d="M377.99,378.47c-.32.51-.7.38-1.01.38-5.64,0-11.27.01-16.91,0-1.43,0-1.45-.03-1.46-1.45-.02-2.22,0-4.44,0-6.96-1.47.99-2.67,1.83-3.89,2.64-4.34,2.87-8.96,5.09-14.09,6.12-4.66.93-9.33,1.05-13.84-.67-7.17-2.73-11.07-8.07-11.77-15.65-.49-5.23.51-10.15,4-14.32,1.95-2.33,4.47-3.94,7.04-5.47,5.08-3.04,10.55-5.26,15.9-7.74,3.95-1.83,7.75-3.93,11-6.88,2.2-1.99,4.02-4.25,4.58-7.28.56-3.03.15-5.96-1.26-8.7-1.35-2.62-3.7-3.9-6.48-4.44-6.82-1.32-12.56.89-17.51,5.52-1.84,1.72-3.45,3.65-4.89,5.72-.23.33-.45.68-.69,1.01-.39.53-.98.48-1.49.34-.71-.2-.32-.76-.24-1.18.74-3.79,1.52-7.58,2.22-11.38.14-.75.4-1.21,1.12-1.5,6.69-2.7,13.49-4.98,20.8-5.2,3.54-.11,7.05.09,10.5.97,6.58,1.67,10.73,5.77,12.44,12.36,1.03,3.98,1.34,8.03,1.38,12.11.12,12.29.2,24.59.34,36.88.02,2.1.15,4.22.43,6.3.44,3.18,1.44,6.18,3.79,8.46ZM358.36,332.95c-.64.39-1.26.77-1.87,1.15-4.37,2.73-8.62,5.65-13.19,8.05-2.28,1.2-4.36,2.74-6.44,4.27-3.7,2.73-5.51,6.38-5.79,10.93-.51,8.31,5.71,13.18,10.91,13.72,1.85.19,3.68,0,5.47-.33,5.3-.97,8.75-4.09,10.25-9.28.68-2.36.9-4.8.9-7.25,0-6.52,0-13.04-.01-19.56,0-.51.15-1.06-.23-1.7Z"/>
      <path class="cls-1" d="M771.09,270.68c-.91-.3-1.13-1.01-1.57-1.49-3.63-3.85-9.32-3.02-11.68,1.71-1.02,2.04-1.5,4.24-1.51,6.49-.07,8.29-.04,16.57-.09,24.86,0,.95.24,1.3,1.25,1.29,3.26-.06,6.52-.02,9.78-.02.67,0,1.34,0,2.16,0-.1,2.16-.72,4.09-1.01,6.07-.12.8-.72.83-1.38.83-3.12-.02-6.24-.01-9.36,0-1.59,0-1.62.02-1.61,1.5.08,18.13.16,36.26.25,54.39.01,2.6.5,5.13,1.36,7.58.61,1.74,1.66,3.24,2.95,4.61-1.5.44-20.33.58-24.12.21-.02-.12-.11-.3-.06-.36,2.88-3.46,3.75-7.59,3.98-11.94.04-.81.06-1.63.06-2.44,0-17.19,0-34.37,0-51.56,0-2.3.23-1.96-1.9-1.95-1.81.01-3.62,0-5.62,0,.74-2.16,1.48-4.26,2.18-6.36.2-.62.68-.58,1.14-.58,1.02,0,2.04-.05,3.05.01.9.06,1.17-.3,1.16-1.16-.03-3.53-.02-7.06.13-10.59.21-4.83.66-9.61,1.87-14.3.97-3.79,2.56-7.29,5.14-10.28,3.17-3.67,7.33-5.49,11.97-6.38,4.12-.79,8.24-.58,12.35.11.59.1,1.3.09,1.08,1.04-.65,2.89-1.3,5.78-1.96,8.71Z"/>
      <path class="cls-1" d="M427.16,378.49c13.67-22.54,27.37-45.12,41.03-67.64-.22-.57-.61-.42-.91-.42-5.29.09-10.59.12-15.88.45-3,.19-5.91.84-8.66,2.07-2.46,1.1-4.51,2.73-6.15,4.89-.33.44-.43,1.21-1.26,1.12-.44-.42-.18-.91-.11-1.33.78-4.34,1.62-8.67,2.36-13.01.15-.87.48-1.18,1.3-1.1.2.02.41,0,.61,0h50.86c-13.75,22.75-27.37,45.28-41.01,67.84.69.42,1.24.26,1.75.26,5.09.02,10.18.04,15.28,0,3.27-.03,6.43-.97,9.66-1.37.61-.07,1.2-.26,1.81-.28,3.09-.1,5.34-1.74,7.32-3.91,1.15-1.25,2.16-2.61,3.09-4.04.28-.43.47-1.04,1.35-.84-.08,1.1-.13,2.22-.24,3.33-.42,4.19-.84,8.37-1.29,12.56-.19,1.75-.22,1.76-1.95,1.76-19.21,0-38.43,0-57.64,0-.38,0-.8.16-1.33-.35Z"/>
      <path class="cls-1" d="M128.76,362.72c-.46,2.49-.86,4.81-1.32,7.12-.73,3.7-.74,3.72-4.11,5.63-10.32,5.85-21.06,6.78-32.06,2.26-7.96-3.26-13.41-9.27-17.14-16.91-3.8-7.79-4.69-16.08-4.07-24.6.51-6.9,2.54-13.31,6.57-18.99,7.69-10.84,18.22-16.07,31.49-15.88,5.9.09,11.57,1.27,17.1,3.28,1.07.39,1.46.87,1.44,2.03-.08,3.87-.01,7.74-.05,11.61,0,.53.38,1.31-.48,1.54-.82.22-1-.51-1.27-1.03-.88-1.69-1.89-3.29-3.1-4.77-4.09-4.99-9.4-6.9-15.73-6.2-7.24.8-12.16,4.89-15.59,11.07-2.31,4.16-3.51,8.68-3.91,13.38-.65,7.49-.33,14.93,1.93,22.17,1.48,4.73,3.76,9.09,7.36,12.51,5.94,5.65,13,6.59,20.6,4.03,4.13-1.39,7.49-4.05,10.57-7.07.42-.41.68-1.03,1.77-1.2Z"/>
      <path class="cls-1" d="M414.35,378.76h-24.4c-.16-.31-.06-.48.08-.63,2.29-2.36,3.13-5.35,3.55-8.48.27-2.02.41-4.05.41-6.09-.02-15.15-.02-30.3,0-45.45,0-2.04-.16-4.07-.42-6.09-.41-3.12-1.33-6.07-3.33-8.49.21-.54.58-.46.9-.46,5.7,0,11.41.02,17.11-.02,1.01,0,1.44.21,1.4,1.33-.09,2.24-.04,4.48-.02,6.72,0,.44-.19.93.32,1.5.57-.57,1.12-1.12,1.67-1.67,4.74-4.67,10.37-7.62,16.98-8.49,3.08-.41,2.56-.39,2.43,2.23-.19,3.93-.5,7.86-.76,11.79-.02.34,0,.68-.07,1.01-.11.56-.47.6-.88.32-.16-.11-.25-.31-.38-.47-3.27-3.89-7.46-4.03-11.9-2.78-4.42,1.24-6.31,4.64-7.06,8.85-.27,1.53-.39,3.09-.39,4.66.02,11.89.01,23.78,0,35.67,0,2.11.15,4.21.5,6.29.53,3.18,1.63,6.14,4.24,8.77Z"/>
    </g>
  </g>
</svg>