<?xml version="1.0" encoding="UTF-8"?>
<svg id="Layer_2" xmlns="http://www.w3.org/2000/svg" viewBox="0 0 515.28 433.55">
  <defs>
    <style>
      .cls-1 {
        fill: #ffffff;
      }

      .cls-2 {
        fill: #ffffff;
      }

      .cls-3 {
        fill: #ffffff;
      }

      .cls-4 {
        fill: #ffffff;
      }

      .cls-5 {
        fill: #ffffff;
      }

      .cls-6 {
        fill: #ffffff;
      }

      .cls-7 {
        fill: #ffffff;
      }

      .cls-8 {
        fill: #ffffff;
      }

      .cls-9 {
        opacity: .74;
      }

      .cls-10 {
        fill: #ffffff;
      }
    </style>
  </defs>
  <g id="objects">
    <g class="cls-9">
      <path class="cls-6" d="M145.65,112.5c0-29.39,21.2-53.78,49.73-57.72,1.45-.2,3.31.11,4.26-.68.98-.82.47-2.78.7-4.23,3.97-24.97,21.06-43.5,45.66-48.62,32.24-6.72,62.18,14.48,68.28,45.32.4,2.01.66,4.07.82,6.11.1,1.22.47,1.7,1.77,1.82,11.92,1.07,22.65,5.26,31.77,13.02,15.67,13.35,22.77,30.43,20.55,50.9-2.82,26-21.95,46.06-47.59,50.61-1.45.26-2.93.49-4.41.51-1.42.02-1.97.46-2.11,1.96-1.19,13.5-6.49,25.18-15.92,34.89-11.25,11.59-25.03,17.57-41.21,17.62-26.31.08-48.77-16.83-55.96-41.97-1.01-3.54-1.7-7.13-1.94-10.8-.08-1.22-.58-1.57-1.75-1.68-26.05-2.48-46.37-20.74-51.69-46.45-.76-3.66-1.12-7.38-.97-10.62ZM170.85,73.27c-.06.02-.13.03-.18.06-20.96,17.16-24.07,49.86-6.69,70.59,2.18,2.59,4.3,5.27,7.26,7.08,1.74,1.82,3.86,3.11,6.03,4.33,6.88,4.4,14.44,6.7,22.56,7.22,2.42.03,4.85.06,7.27.08l.03.02c-.17,2.31-.43,4.61.11,6.91-.36,1.62.13,3.19.37,4.76,1.01,6.51,3.1,12.64,6.83,18.14,1.16,2.27,2.48,4.43,4.49,6.08-.25.82.51,1.11.9,1.54,15.23,16.91,39.35,21.72,59.85,11.86,6.61-3.18,12.36-7.55,16.88-13.41,1.71-1.83,3.12-3.87,4.27-6.1,1.48-1.65,2.24-3.7,3.09-5.67,2.37-5.48,4.06-11.15,4.11-17.2.38-2.31.13-4.63.1-6.94h0c2.43-.03,4.87-.05,7.3-.08,2.06.05,4.08-.39,6.08-.77,5.88-1.12,11.41-3.15,16.43-6.47,2.41-1.2,4.5-2.88,6.57-4.58.26-.19.53-.36.77-.57,9.27-8.33,15.11-18.59,16.69-30.98,2.35-18.37-3.61-33.7-17.56-45.91-2.03-1.61-4.01-3.3-6.41-4.37-.17-.19-.3-.44-.51-.55-6.88-3.9-14.18-6.43-22.16-6.77-2.38-.32-4.77-.28-7.15.01l-.03-.04c-.03-2.41-.05-4.82-.08-7.24-.43-8.06-2.85-15.5-6.98-22.4-1.43-2.5-3.16-4.78-4.95-7.02-12.23-13.63-27.46-19.59-45.62-17.24-12.81,1.66-23.42,7.73-31.74,17.67-1.8,2.01-3.26,4.26-4.65,6.57-4.15,6.92-6.63,14.36-6.99,22.46-.4,2.37-.16,4.75-.04,7.13l-.08.1c-2.28-.14-4.57-.54-6.84.14-1.35-.18-2.65.14-3.97.26-6.85.62-13.01,3.12-18.84,6.59-2.27,1.44-4.51,2.91-6.53,4.69Z"/>
      <path class="cls-6" d="M242.17,339.99v-2.3c0-23.38.02-46.76-.04-70.14,0-1.67.34-2.33,2.1-2.11,1.58.19,3.71-.49,4.66.32,1.11.95.36,3.14.37,4.79.02,26.28,0,52.56.06,78.84,0,1.76-.47,2.22-2.14,2.08-2.3-.2-4.96.74-6.83-.35-1.78-1.04-2.79-3.43-4.09-5.26-15.7-21.98-31.39-43.97-47.09-65.96-.33-.46-.68-.91-1.11-1.48-.45.75-.25,1.45-.25,2.11-.01,22.93-.04,45.86.04,68.79,0,1.85-.56,2.2-2.25,2.17-4.89-.1-4.89-.03-4.89-4.89,0-26.34.02-52.69-.04-79.03,0-1.68.43-1.95,2.09-2.17,4.23-.57,6.61,1.16,9.02,4.6,16.11,22.95,32.49,45.72,48.78,68.54.39.55.81,1.08,1.21,1.63.14-.05.28-.1.41-.15Z"/>
      <path class="cls-6" d="M359.58,308.28c0,24.79-19.39,44.12-44.25,44.11-24.27,0-43.78-19.63-43.78-44.03,0-24.55,19.58-44.07,44.19-44.05,24.32.02,43.83,19.59,43.83,43.98ZM315.49,271.41c-20.86-.08-37.64,17.95-36.89,38.6.68,18.96,17.67,35.62,37.08,35.36,20.6-.27,37.15-17,36.87-37.29-.28-20.36-16.99-36.9-37.06-36.67Z"/>
      <path class="cls-6" d="M430.16,351.43c-2.83,0-5.21-.06-7.58.03-1.19.04-1.5-.8-1.97-1.53-5.53-8.59-11.08-17.17-16.56-25.8-.76-1.2-1.52-1.8-3.04-1.73-3.41.14-6.83.11-10.24.01-1.29-.04-1.59.37-1.58,1.61.05,8.5,0,17.01.06,25.51.01,1.47-.3,2.09-1.88,1.93-1.65-.17-3.86.51-4.85-.33-1.16-.99-.38-3.26-.38-4.97-.03-26.16,0-52.31-.07-78.47,0-1.93.54-2.3,2.35-2.27,6.25.12,12.5.05,18.75.05,12.99,0,25.57,11.19,27.09,24.09,1.7,14.48-5.29,26.14-18.83,31.4-.22.09-.44.17-.81.31,6.48,10.01,12.9,19.92,19.53,30.17ZM389.22,294.03c0,6.57.03,13.13-.02,19.7,0,1.17.18,1.68,1.53,1.64,3.73-.1,7.47-.05,11.2-.03,5.36.02,10.08-1.69,14.16-5.18,6.74-5.77,9.24-15.22,6.2-23.48-3.1-8.44-11.02-13.98-20.01-13.98-3.8,0-7.6.06-11.4-.03-1.34-.03-1.72.29-1.7,1.67.08,6.57.04,13.13.04,19.7Z"/>
      <path class="cls-6" d="M449.89,351.43q-3.84,0-2.58-3.46c9.9-26.92,19.8-53.84,29.67-80.77.45-1.22.92-1.82,2.38-1.79,4.68.1,4.69.02,6.3,4.45,9.65,26.6,19.28,53.21,28.97,79.79.52,1.43.46,1.95-1.2,1.79-1.85-.18-4.13.71-5.45-.34-1.2-.96-1.41-3.19-2.03-4.87-3.63-9.96-7.26-19.91-10.84-29.88-.47-1.32-1.07-1.85-2.58-1.83-7.79.1-15.59.11-23.38,0-1.62-.02-2.16.56-2.67,1.96-3.83,10.55-7.76,21.07-11.65,31.59q-1.24,3.35-4.95,3.35ZM480.85,277.17c-3.63,10-7.05,19.48-10.53,28.93-.42,1.14-.41,1.55.99,1.53,6.37-.06,12.75-.05,19.12,0,1.15,0,1.43-.17.97-1.37-2.1-5.59-4.11-11.21-6.15-16.82-1.41-3.9-2.81-7.81-4.41-12.27Z"/>
      <path class="cls-6" d="M81.08,302.45c8.25-11.81,16.52-23.6,24.73-35.44.78-1.13,1.55-1.66,2.96-1.58,2.09.13,4.2.03,6.64.03-.6.93-1.02,1.62-1.47,2.28-6.65,9.63-13.3,19.27-20,28.86-.74,1.06-.79,1.73-.02,2.83,11.7,16.62,23.34,33.28,35,49.94.4.57.8,1.15,1.42,2.05-2.9,0-5.5.02-8.11-.01-.85-.01-1.08-.84-1.47-1.4-10.34-14.75-20.68-29.49-30.97-44.28-1-1.44-1.45-1.68-2.49-.03-1.78,2.83-3.77,5.52-5.72,8.24-.63.88-.9,1.76-.89,2.85.03,10.95-.01,21.9.06,32.86,0,1.46-.37,1.96-1.81,1.8-1.65-.18-3.82.67-4.85-.32-1.05-1-.32-3.17-.32-4.82-.02-26.22,0-52.44-.05-78.66,0-1.69.32-2.45,2.17-2.22,1.51.19,3.56-.45,4.47.32,1.08.92.34,3.02.35,4.6.04,10.05.02,20.1.02,30.15,0,.62,0,1.24,0,1.86.12.02.25.05.37.07Z"/>
      <path class="cls-6" d="M27.81,352.4c-14.63-.01-25.44-9.06-27.6-21.27-.2-1.11-.08-1.63,1.04-1.95,1.41-.41,2.8-.93,4.16-1.5,1.09-.46,1.36-.17,1.5.98.91,7.76,6.33,14.01,13.83,16.08,8.58,2.36,17.4-1.44,21.8-9.42,4.07-7.37,2.43-16.93-3.91-22.78-3.78-3.48-8.05-6.13-12.9-7.87-5.57-2-10.78-4.69-14.58-9.37-4.96-6.12-5.82-13.06-2.42-20.06,3.62-7.46,9.94-11.18,18.33-10.62,7.61.5,12.9,4.54,16.07,11.45.56,1.21.55,1.93-.96,2.34-1.48.4-2.91,1.59-4.31,1.51-1.61-.09-1.54-2.29-2.4-3.46-4.19-5.66-12.03-6.72-17.37-2.22-5.35,4.5-5.68,12.46-.69,17.43,3.01,2.99,6.61,5.11,10.57,6.54,6.97,2.51,13.21,6.18,17.87,11.98,6.7,8.35,7.69,17.77,3.23,27.33-4.53,9.7-12.62,14.56-21.28,14.87Z"/>
      <path class="cls-10" d="M257.86,385.69c84.98,0,169.96,0,254.94.04.8,0,2.42-.84,2.38.83-.04,1.46-1.56.66-2.33.66-170.09.04-340.17.05-510.26,0-.82,0-2.44.88-2.47-.71-.03-1.6,1.6-.78,2.42-.78,85.11-.04,170.21-.04,255.32-.04Z"/>
      <path class="cls-7" d="M147.82,308.53c0-13.71.02-27.43-.03-41.14,0-1.43.23-2.16,1.86-1.95,1.64.21,3.8-.67,4.83.34,1.04,1.02.32,3.18.33,4.84.02,26.14,0,52.28.05,78.42,0,1.84-.28,2.56-2.36,2.48-4.68-.19-4.69-.06-4.69-4.74,0-12.75,0-25.5,0-38.25Z"/>
      <path class="cls-8" d="M499.47,419.1c0,4.22-.05,8.45.03,12.67.03,1.23-.35,1.47-1.5,1.46-4.53,0-4.53.04-4.53-4.43,0-6.05.05-12.1-.04-18.15-.02-1.48.46-1.68,1.83-1.82,3.02-.32,4.92.6,6.44,3.39,2.08,3.81,4.71,7.31,7.12,10.97.62-.43.35-.99.35-1.45.03-3.73.06-7.47,0-11.2-.02-1.19.19-1.68,1.55-1.68,4.54,0,4.54-.06,4.54,4.46,0,6.05-.03,12.1.03,18.15.01,1.26-.22,1.63-1.61,1.8-3.35.42-5.39-.79-7.02-3.75-2.01-3.64-4.53-7.01-6.83-10.49-.12.02-.23.05-.35.07Z"/>
      <path class="cls-8" d="M207.96,421.13c-.08,7.07-5.57,12.49-12.53,12.39-7.17-.1-12.53-5.59-12.41-12.71.12-7.02,5.73-12.48,12.64-12.3,7.16.19,12.4,5.55,12.31,12.61ZM201.83,420.93c-.03-4.22-2.49-6.87-6.36-6.86-3.81,0-6.34,2.74-6.38,6.91-.04,4.15,2.65,7.03,6.51,6.99,3.76-.04,6.26-2.87,6.23-7.04Z"/>
      <path class="cls-8" d="M300.04,421.02c0,7.12-5.3,12.48-12.37,12.51-7.12.02-12.55-5.45-12.51-12.6.04-7.04,5.47-12.43,12.51-12.41,7.09.02,12.37,5.36,12.37,12.5ZM281.36,420.95c0,4.31,2.34,6.97,6.22,7.02,3.79.05,6.37-2.74,6.4-6.92.03-4.19-2.49-6.98-6.3-6.99-3.94,0-6.3,2.58-6.31,6.89Z"/>
      <path class="cls-6" d="M52.14,432.8c-5.22,1.9-7.95-.57-9.6-5.03-.37-1.01-1.06-1.9-1.54-2.88-.26-.53-.61-.83-1.19-.75-.76.11-.59.73-.59,1.21-.01,2.19-.05,4.38.02,6.56.03,1.01-.29,1.28-1.3,1.3-4.72.13-4.72.17-4.72-4.58,0-6.05.03-12.1-.03-18.15-.01-1.22.24-1.7,1.56-1.62,3.53.2,7.08-.28,10.6.26,3.86.6,6.16,2.77,6.72,6.16.55,3.31-1.13,6.86-4.33,7.97-.9.31-.7.77-.32,1.4,1.62,2.74,3.21,5.51,4.73,8.14ZM41.4,413.92c-1.47-.34-2.36.01-2.26,2.2.19,4.15.31,4.37,4.5,3.6,2.12-.39,3.11-2.56,2.02-4.41-.92-1.57-2.47-1.38-4.26-1.39Z"/>
      <path class="cls-6" d="M364.24,423.74c1.77,3.05,3.53,6.1,5.48,9.45-2.23,0-4.24-.01-6.24,0-.78,0-.89-.65-1.16-1.12-1.29-2.29-2.56-4.59-3.82-6.9-.31-.57-.55-1.26-1.39-1.01-.8.24-.48.96-.48,1.48-.03,2.12-.06,4.25,0,6.37.03.93-.28,1.16-1.2,1.2-4.82.2-4.82.23-4.82-4.48,0-6.05.04-12.09-.03-18.14-.01-1.28.22-1.82,1.65-1.74,3.52.22,7.08-.29,10.59.28,3.86.62,6.13,2.88,6.64,6.45.48,3.38-1.15,6.11-4.64,7.82-.17.08-.33.19-.57.33ZM356.6,416.95c.24,1.15-.95,3.18,2.02,2.98,3.57-.24,4.76-.79,4.76-3.06,0-2.13-1.17-2.95-4.2-2.95q-2.59,0-2.59,3.03Z"/>
      <path class="cls-3" d="M442.19,419.39c2.57-3.39,4.82-6.27,6.97-9.22.67-.92,1.36-1.37,2.53-1.3,1.7.11,3.42.03,5.55.03-2.72,3.47-5.07,6.74-7.74,9.73-1.53,1.72-1.42,2.77.03,4.44,2.73,3.15,5.2,6.53,8.03,10.13-2.5,0-4.7-.01-6.9,0-.74,0-.92-.62-1.26-1.05-2.3-2.98-4.58-5.99-7.22-9.44,0,3.4-.05,6.26.02,9.11.03,1.08-.29,1.39-1.39,1.41-4.71.08-4.71.12-4.71-4.64,0-6.05.02-12.11-.02-18.16,0-1.11.19-1.56,1.46-1.58,4.64-.05,4.64-.1,4.64,4.56,0,1.79,0,3.57,0,5.97Z"/>
      <path class="cls-2" d="M314.66,417.2c0-2.12.08-4.25-.02-6.37-.17-3.48,2.42-1.52,3.74-1.88,1.47-.4,2.43-.04,2.34,1.99-.19,4.18-.1,8.37-.04,12.55.04,2.86,1.34,4.26,3.8,4.35,2.93.11,4.48-1.26,4.52-4.23.07-4.38.07-8.76,0-13.13-.02-1.29.37-1.61,1.62-1.61,4.48,0,4.51-.04,4.46,4.52-.04,3.92.31,7.86-.19,11.77-.67,5.24-5,8.63-10.5,8.37-5.83-.28-9.54-3.82-9.72-9.36-.07-2.32-.01-4.64-.01-6.95Z"/>
      <path class="cls-6" d="M87.47,417.2c0,2.38.16,4.78-.03,7.14-.48,6.03-5.11,9.75-11.12,9.1-6.02-.65-9.09-4-9.14-10.07-.04-4.32.03-8.63-.03-12.95-.01-1.11.18-1.56,1.45-1.56,4.5-.02,4.5-.08,4.5,4.48,0,3.35-.05,6.7.02,10.05.06,2.87,1.37,4.33,3.76,4.45,3.02.14,4.61-1.28,4.65-4.32.06-4.32.07-8.63-.02-12.95-.03-1.35.33-1.72,1.69-1.7,4.34.06,4.34,0,4.34,4.28,0,1.35,0,2.71,0,4.06-.02,0-.05,0-.07,0Z"/>
      <path class="cls-6" d="M417.62,415.88c-1.56-.12-3.19.5-4.06-1.61-.43-1.04-1.87-1.02-2.97-.72-.89.24-1.35.94-1.38,1.88-.04,1.15.67,1.79,1.61,2.17,2.01.83,4.08,1.55,6.08,2.39,2.41,1.01,4.04,2.63,4.17,5.46.14,3.08-1.05,5.47-3.77,6.82-3.77,1.87-7.59,1.6-11.26-.44-.96-.54-1.71-1.36-2.27-2.32-.62-1.07-1.35-2.35-.81-3.42.37-.73,1.78-.19,2.72-.25.77-.05,1.55.03,2.32-.02.74-.05,1.14.14,1.39.93.55,1.78,2,2,3.58,1.76.88-.13,1.56-.65,1.8-1.53.26-.97-.11-1.75-.91-2.35-1-.74-2.2-1.03-3.34-1.44-1.2-.44-2.45-.78-3.61-1.3-2.49-1.11-3.99-2.97-4.08-5.79-.09-2.92,1.13-5.2,3.76-6.42,3.64-1.69,7.36-1.6,10.93.34.71.39,1.34,1.01,1.86,1.65.91,1.12,1.76,2.59,1.24,3.86-.35.85-2,.15-2.99.34Z"/>
      <path class="cls-6" d="M103.13,421.04c0-3.54.04-7.08-.02-10.62-.02-1.12.2-1.58,1.46-1.55,3.99.09,7.98.09,11.97,0,1.3-.03,1.44.48,1.44,1.57,0,3.36.04,3.36-3.29,3.36h-2.32c-3.49,0-3.46,0-3.34,3.51.03.91.25,1.24,1.19,1.21,1.8-.06,3.61.03,5.41-.04,1.03-.04,1.45.18,1.45,1.34.01,3.32.07,3.32-3.32,3.32-.84,0-1.69.11-2.51-.02-1.96-.33-2.34.53-2.24,2.31.16,2.91.04,2.92,3,2.92,1.61,0,3.22.03,4.83-.01.83-.02,1.07.26,1.13,1.1.25,3.76.29,3.75-3.43,3.75-3.35,0-6.7-.04-10.04.02-1.06.02-1.43-.24-1.4-1.36.07-3.6.03-7.21.03-10.82Z"/>
      <path class="cls-6" d="M239.75,409.28c5.3-1.87,7.94.51,9.26,5.24.39,1.4,1.21,2.67,2,4.37,1.45-3.12,2.78-5.89,4.02-8.72.41-.95.89-1.38,1.98-1.31,1.66.11,3.33.03,4.96.03.3.76-.21,1.19-.46,1.67-1.46,2.86-2.8,5.79-4.45,8.54-2.3,3.85-3.76,7.83-3.09,12.38.19,1.27-.16,1.76-1.6,1.74-4.41-.07-4.5,0-4.37-4.37.07-2.46-.43-4.62-1.64-6.79-2.36-4.24-4.48-8.63-6.62-12.8Z"/>
      <path class="cls-2" d="M6.47,423.37c0-2.64-.08-5.29.03-7.92.06-1.41-.43-1.79-1.74-1.66-1.09.1-2.2-.06-3.28.04C.24,413.95,0,413.43,0,412.29c0-3.39-.05-3.39,3.28-3.39,4.64,0,9.28.06,13.91-.03,1.4-.03,1.71.42,1.69,1.74-.06,3.2,0,3.2-3.29,3.2s-3.19,0-3.19,3.25c0,4.9-.04,9.79.03,14.69.02,1.19-.28,1.49-1.48,1.49-4.49,0-4.49.05-4.49-4.45,0-1.8,0-3.61,0-5.41Z"/>
      <path class="cls-2" d="M157.25,423.51c0-2.77-.05-5.54.02-8.31.03-1.07-.26-1.55-1.39-1.41-.57.07-1.16.01-1.74.01-3.52,0-3.93-.54-3.36-4.08.14-.86.61-.83,1.2-.83,5.48,0,10.95.02,16.43-.02.9,0,1.2.25,1.25,1.19.19,3.74.23,3.73-3.52,3.73q-2.95,0-2.95,2.91c0,5.02-.03,10.05.02,15.07,0,1.02-.16,1.43-1.33,1.45-4.63.06-4.63.11-4.63-4.5,0-1.74,0-3.48,0-5.22Z"/>
      <path class="cls-3" d="M471.68,420.86c0-3.47.06-6.94-.03-10.41-.03-1.3.39-1.59,1.63-1.59,4.47,0,4.47-.04,4.47,4.5,0,6.04-.03,12.08.03,18.11.01,1.26-.18,1.78-1.63,1.76-4.47-.05-4.47.02-4.47-4.47,0-2.63,0-5.27,0-7.9Z"/>
      <path class="cls-5" d="M509.14,275.48c-2.83,0-4.99-2.17-4.98-5,0-2.8,2.22-5.03,5-5.03,2.8,0,4.97,2.21,4.96,5.04,0,2.87-2.13,5-4.98,4.99ZM509.22,274.35c2.21-.03,3.82-1.73,3.76-3.98-.06-2.25-1.73-3.85-3.97-3.79-2.1.06-3.66,1.72-3.67,3.9,0,2.27,1.62,3.89,3.87,3.87Z"/>
      <path class="cls-1" d="M338.02,68.91c2.4,1.07,4.38,2.75,6.41,4.37-.1.16-.26.31-.3.48-3.06,14-8.68,26.74-18.48,37.4-.7.76-.55,1.23.09,1.92,8.74,9.42,14.03,20.66,17.38,32.92.43,1.58.46,3.3,1.41,4.73-2.07,1.7-4.15,3.37-6.57,4.58-2.76-14.19-7.91-27.25-17.9-38.05-.99-1.07-1.94-1.62-3.46-1.61-9.4.07-18.8.03-28.2.04-.6,0-1.19.07-2.32.14,1.2.79,1.93,1.28,2.66,1.76,10.7,6.95,18.34,16.37,22.95,28.27,2.08,5.38,3.01,11.01,3.75,16.68-2.43.02-4.87.05-7.3.07-1.61-17.57-10.01-30.95-25.04-40.11-6.17-3.76-13-5.8-20.18-6.69-1.25-.15-1.83.15-1.55,1.52.27,1.32.43,2.66.67,3.99,4.01,22.42,23.38,39.76,46.09,41.29.03,2.31.27,4.63-.1,6.94-.26,0-.52.04-.77.02-16.31-1.31-29.57-8.48-40.11-20.88-2.1-2.48-3.81-5.24-5.81-8.25-.08.66-.14.9-.14,1.13,0,9.98.01,19.97-.03,29.95,0,1.11.51,1.78,1.22,2.47,5.78,5.68,12.59,9.75,19.98,12.94,5.93,2.56,12.16,4.11,18.45,5.49-1.15,2.22-2.56,4.27-4.27,6.1-.51-.03-1.04,0-1.53-.11-13.54-3.21-25.97-8.66-36.34-18.19-.79-.73-1.29-.77-2.08-.04-4.5,4.2-9.53,7.65-14.99,10.47-7.18,3.7-14.7,6.45-22.68,7.88-2.01-1.65-3.33-3.81-4.49-6.08,1.25-.3,2.49-.6,3.74-.89,13.09-2.97,24.99-8.25,34.79-17.7.77-.74,1.05-1.49,1.05-2.53-.03-9.79-.01-19.57-.03-29.36,0-.38.27-.89-.36-1.2-.43.65-.85,1.29-1.26,1.94-3.89,6.16-8.73,11.47-14.62,15.76-9.1,6.62-19.17,10.64-30.52,11.08-.54-2.29-.28-4.6-.11-6.91,2.29-.33,4.61-.52,6.86-1.02,21.68-4.8,37.47-22.48,39.88-44.53.11-1.05-.17-1.46-1.2-1.3-1.59.25-3.18.47-4.76.75-21.98,3.91-39.57,23.78-40.8,46.08-2.42-.03-4.85-.06-7.27-.08.16-1.34.27-2.69.48-4.02,2.79-17.7,11.58-31.53,26.69-41.27.59-.38,1.4-.6,1.7-1.49-.37-.04-.62-.08-.87-.08-9.92,0-19.84.02-29.76-.03-1.2,0-1.91.56-2.62,1.33-3.96,4.27-7.3,8.97-10.03,14.12-4.05,7.63-6.47,15.79-8.14,24.22-2.17-1.22-4.29-2.51-6.03-4.33.03-.64-.04-1.3.11-1.91,3.21-13.33,8.56-25.6,17.98-35.81.75-.82.99-1.37.06-2.38-5.93-6.4-10.29-13.77-13.6-21.83-2.11-5.13-3.46-10.48-4.93-15.8,2.02-1.78,4.26-3.25,6.53-4.69.14,2.13.71,4.18,1.22,6.23,3.06,12.18,8.19,23.26,17.02,32.42.8.83,1.6,1.29,2.83,1.29,9.73-.05,19.45-.02,29.18-.05.43,0,1.02.32,1.35-.38-.83-.53-1.64-1.04-2.45-1.56-8.67-5.6-15.46-12.94-20.18-22.13-3.65-7.11-6.06-14.58-6.15-22.67,2.27-.69,4.55-.28,6.84-.14.2,1.66.35,3.33.62,4.97,3.76,22.23,22.58,39.6,45.11,41.74,1.08.1,1.21-.25,1.11-1.14-1.31-11.71-5.9-21.95-14.14-30.39-8.93-9.16-19.88-14.2-32.63-15.29-.12-2.38-.36-4.76.04-7.13,20.45,1.79,35.87,11.69,46.67,29.19.11-.35.18-.47.18-.58,0-10.23,0-20.47.03-30.7,0-1.05-.54-1.65-1.21-2.27-5.91-5.48-12.58-9.77-20.02-12.85-6.01-2.49-12.17-4.47-18.66-5.25,1.39-2.31,2.85-4.55,4.65-6.57.37.12.73.26,1.1.35,13.73,3.08,26.25,8.62,36.7,18.27.84.78,1.36.62,2.09-.03,1.49-1.32,2.97-2.67,4.56-3.88,9.31-7.12,19.88-11.49,31.2-14.22.64-.15,1.5.03,1.72-.93,1.79,2.24,3.52,4.53,4.95,7.02-2.66.05-5.18.86-7.72,1.53-11.24,2.93-21.44,7.91-30.1,15.77-1.01.92-2.13,1.71-2.11,3.44.08,9.78.04,19.56.05,29.34,0,.38-.26.92.44,1.16,10.7-17.27,26.13-26.98,46.43-28.84.03,2.41.05,4.82.08,7.24-.96.07-1.93.08-2.89.22-10.12,1.47-19.13,5.39-26.82,12.19-9.99,8.83-15.53,19.97-17.1,33.16-.1.83-.02,1.31,1.1,1.19,6.47-.69,12.68-2.35,18.37-5.45,16.35-8.92,25.46-22.72,27.37-41.25,2.38-.3,4.77-.33,7.15-.01-.26,2.1-.41,4.23-.81,6.31-3.3,17.03-12.33,30.14-26.99,39.4-.44.28-1.12.35-1.2,1.07.15.05.27.11.38.11,10.18,0,20.35,0,30.53.03.96,0,1.53-.45,2.13-1.07,6.98-7.13,11.65-15.63,14.97-24.96,1.58-4.43,2.5-9.03,3.66-13.57Z"/>
      <path class="cls-4" d="M509.22,274.35c-2.25.03-3.88-1.6-3.87-3.87,0-2.18,1.57-3.84,3.67-3.9,2.24-.06,3.91,1.54,3.97,3.79.06,2.25-1.55,3.95-3.76,3.98ZM511.47,272.85c-.82-.97-1.06-1.85-.23-3.08.59-.87-.24-1.84-1.22-1.89-.92-.05-2.37-.84-2.76.57-.35,1.24-.07,2.66-.07,4,0,.33.07.63.51.63.33,0,.62-.02.79-.37.17-.36-.14-.9.43-1.16.7.64.95,2.16,2.54,1.3Z"/>
      <path class="cls-5" d="M511.47,272.85c-1.6.86-1.84-.66-2.54-1.3-.57.26-.26.8-.43,1.16-.17.36-.47.37-.79.37-.44,0-.51-.3-.51-.63,0-1.34-.28-2.76.07-4,.39-1.4,1.84-.62,2.76-.57.97.06,1.81,1.02,1.22,1.89-.83,1.22-.58,2.11.23,3.08Z"/>
    </g>
  </g>
</svg>