<?xml version="1.0" encoding="UTF-8"?>
<svg id="Layer_2" xmlns="http://www.w3.org/2000/svg" viewBox="0 0 890.04 433.55">
  <defs>
    <style>
      .cls-1 {
        fill: #ffffff;
      }

      .cls-2 {
        fill: #ffffff;
      }

      .cls-3 {
        opacity: .44;
      }
    </style>
  </defs>
  <g id="objects">
    <g class="cls-3">
      <path class="cls-2" d="M359.47,38.7h-37.65s.21-.22.36-.66c3.79-11.02,11.67-13.94,22.65-12.51,18.09,2.36,33.83-2.86,50.19-11.68,33.74-18.2,69.32-18.15,104.54-1.63-8.18,0-16.81,1.72-24.48-.28-44.88-11.7-89.24,10.93-111.14,51.16-26.1,47.93-15.7,109.29,24.98,145.21,36.35,32.09,91.54,30.41,126.06-3.75,7.78-7.69,15.14-15.7,20.58-25.23,1.53-2.69,2.73-2.99,5.37-1.76,3.97,1.84,8.06,3.57,12.27,4.71,5.41,1.47,3.04,3.95,1.23,6.44-14.96,20.51-34.27,35.51-58.12,44.07-37.59,13.49-74.53,11.19-109.21-8.68-69.69-39.93-79.44-129.95-29.26-183.04.63-.66,1.06-1.51,1.64-2.36Z"/>
      <path class="cls-2" d="M405.04,36.59c9.09-6.86,18.18-11.41,29.91-11.2,37.42.65,74.86.24,112.29.24,11.85,0,12.71.71,15.4,12.11-15.87,0-31.91.14-47.96-.04-16.89-.19-33.78-.59-50.66-1.13-3.74-.12-4.98.83-4.97,4.71.16,57.38.13,114.76.33,172.13.01,3.63-.94,4.65-4.43,4.73-5.76.13-11.46.08-17.19-.78-2.88-.43-4.11-1.55-3.99-4.38.07-1.72-.03-3.45-.03-5.18,0-55.27-.07-110.54.11-165.81.01-4.58-1.24-5.71-5.63-5.5-7.72.37-15.46.1-23.19.1ZM456.26,39.42c-.19-.08-.38-.16-.57-.24v172.28c.19,0,.38,0,.57,0V39.42Z"/>
      <path class="cls-1" d="M517.77,51.05c9.01,0,17.21-.1,25.41.06,2.72.05,10.97,9.74,11.04,12.35.04,1.55-1.08,1.78-2.07,2.34-4.99,2.83-9.94,5.73-14.91,8.59-1.86,1.07-3.13,1.17-4.58-1.12-4.66-7.36-9.67-14.5-14.89-22.23Z"/>
      <path class="cls-1" d="M456.26,39.42v172.04c-.19,0-.38,0-.57,0V39.18c.19.08.38.16.57.24Z"/>
      <g>
        <path class="cls-2" d="M403.59,313.41c0,7.82.14,14.21-.06,20.58-.09,3.1.92,4.23,4.05,4.09,4.56-.2,9.13-.09,13.69,0,1.87.03,3.82-.09,3.32-2.49-2.44-11.67,7.86-14.93,14.49-21.16,0,6.14.26,12.3-.09,18.42-.24,4.23,1.04,5.84,5.34,5.24,2.49-.35,5.12.28,7.59-.13,6.05-1,9.58,1.56,11.26,7.34-6.09,0-12.23.26-18.34-.09-4.42-.25-6.07.68-5.88,5.66.46,12.15.09,24.34.17,36.51.05,8.5,3.41,10.79,11.64,8.11,1.12-.36,2.2-.86,3.3-1.3,1.05-.42,1.96-.38,2.61.7.65,1.08.79,1.86-.18,3.1-5.86,7.48-20.48,9.14-27.53,2.85-3.35-2.99-4.31-7.07-4.31-11.43,0-13.69-.11-27.38.02-41.07.03-2.61-.44-3.53-3.24-3.35-4.71.32-9.47.49-14.17.16-3.49-.25-3.83,1.38-3.81,4.09.11,12.51.1,25.01.22,37.52.09,9.18,2.41,10.77,11.58,8.94,1.94-.39,4.51-3.82,6.07-.38,1.31,2.9-2.09,4.36-3.97,5.7-6.64,4.74-13.91,4.89-21.14,1.59-5.41-2.46-7.03-7.41-7.06-12.95-.06-13.02-.24-26.04.04-39.05.09-4.25-1.15-5.35-5.14-4.6-2.63.49-5.38.32-8.07.49-.97.06-2.09.62-2.7-.56-.5-.96.65-1.38.95-2.07,2.04-4.83,5.65-6.56,10.74-5.88,2.29.31,4.83.17,4.11-3.22-1.52-7.07,2.27-11.32,7.41-15.09,2.14-1.57,4-3.51,7.11-6.27Z"/>
        <path class="cls-1" d="M53.1,301.9c17.5-.39,31.66,4.04,43.25,15.64,2.74,2.74,2.86,4.08-.48,6.45-7.55,5.36-7.66,5.76-13.41-1.21-18.98-22.98-50.08-13.44-59.99,9.17-8.33,18.99-5.49,40.62,7.85,54.16,16.68,16.93,39.1,15.83,54.08-2.65.21-.26.34-.59.54-.85,6.4-8.23,6.35-8.09,16.29-4.09,3.07,1.24,3.09,2.3,1.28,4.67-10.51,13.73-24.36,21.38-41.55,22.73-18.09,1.43-34.8-2.07-47.2-16.45C-.05,373.46-3.78,354.99,4,335.18c7.59-19.34,22.1-30.52,43.01-32.86,2.52-.28,5.06-.35,6.1-.41Z"/>
        <path class="cls-2" d="M644.56,353.15c0-15.37.09-30.74-.08-46.11-.03-3.14.8-3.96,3.94-3.95,10.58.04,10.58-.1,10.56,10.6-.01,7.6,0,15.2-.02,22.8q-.01,6.04,5.35,3.57c13.54-6.2,30.55-1.67,38.58,10.62,9.78,14.95,8.28,45.66-16.58,52.59-7.99,2.23-15.97,2.19-23.57-1.98-1.15-.63-3.44-3.36-4.04,1.04-.29,2.13-2.87,1.13-4.42,1.16-9.69.18-9.69.15-9.69-9.29v-41.05h-.02ZM658.98,370.95h.02c0,6.25,0,12.5,0,18.76,0,1.53.03,2.78,1.64,3.85,7.83,5.23,21.85,2.93,27.56-4.78,5.74-7.75,6.22-16.47,4.6-25.59-2.68-15.05-16.02-20.62-29.1-15.97-3.32,1.18-4.96,2.76-4.78,6.5.27,5.73.07,11.49.07,17.23Z"/>
        <path class="cls-2" d="M125.09,345.84c7.82-7.64,15.96-9.77,25.18-8.55,10.1,1.34,16.15,7.18,17.21,17.35,1.59,15.32.42,30.71.81,46.06.06,2.36-1.13,2.88-3.11,2.84-2.2-.05-4.41-.18-6.59.02-3.62.33-4.95-.79-4.86-4.75.27-11.82.18-23.65-.04-35.47-.11-5.91-.61-11.79-6.65-15.38-5.47-3.25-10.82-2.01-15.95.29-4.61,2.07-6.15,6.12-6.07,11.23.22,13.34-.04,26.69.15,40.04.04,3.07-.64,4.06-3.84,4.09-10.8.11-10.8.24-10.8-10.45,0-28.38.1-56.76-.08-85.14-.03-4.04,1.09-5.15,5.05-5.07,9.59.21,9.59.02,9.59,9.48,0,10.6,0,21.19,0,33.41Z"/>
        <path class="cls-1" d="M306.79,370.48c.35-21.09,13.93-34.04,35.19-33.55,21.51.49,34.45,13.64,34.05,34.6-.4,20.79-14.3,33.49-36.26,33.12-20.19-.34-33.32-13.94-32.98-34.17ZM321.42,370.05c.31,8.77,2.08,15.71,6.99,21.49,6.53,7.68,15.75,8.41,23.17,1.98,11.93-10.33,12.95-33,2-44.41-5.2-5.42-13.32-6.85-19.88-3.19-10.02,5.58-11.47,15.4-12.29,24.14Z"/>
        <path class="cls-1" d="M230.42,373.73c0,6.08-.2,12.16.08,18.23.14,3.17.62,6.71,5.33,6.41.93-.06,1.7.33,1.64,1.41-.08,1.33-1.14,2.06-2.09,2.69-3.02,2.01-9.83,1.25-13.12-2.34-3.13-3.4-4.8-2.97-8.44-.37-9.86,7.03-20.83,6.42-31.25,1.4-8.11-3.9-11.85-22.18.76-29.39,6.62-3.79,13.8-6.27,20.89-8.96,1.1-.42,2.23-.74,3.3-1.21,3.61-1.57,7.2-3.09,7.17-8.02-.03-4.12-1.78-7.55-5.35-8.99-4.01-1.62-8.28-.95-11.86,2.04-2.7,2.26-4.25,5.24-5.22,8.5-.65,2.2-1.81,2.66-3.7,1.7-2.81-1.42-7.44-1.32-8.16-4.24-.78-3.16,2.77-5.87,5.16-8.16,11.7-11.2,33.33-9.55,41.64,3.01,2.47,3.73,2.74,7.92,2.88,12.13.15,4.72.03,9.46.03,14.18h.32ZM215.1,377.79h-.03c0-3.2.07-6.41-.03-9.61-.04-1.27-.03-3.03-2.25-2.03-6.56,2.94-13.42,5.41-18.5,10.81-6.05,6.43-4.67,16.48,2.48,19.04,9.61,3.44,18.69-3.09,18.33-13.15-.06-1.68,0-3.37,0-5.06Z"/>
        <path class="cls-2" d="M756.36,397.82c-1.57-.53-2.22.41-2.93,1.04-7.87,6.94-16.92,7.21-26.15,3.97-8.05-2.82-11.72-9.6-11.97-17.64-.46-14.68-.15-29.39-.28-44.08-.02-2.6,1.16-3.19,3.38-3.1,2.19.09,4.42.24,6.58-.04,3.55-.45,4.63.81,4.57,4.41-.2,13.17-.13,26.35-.03,39.53.05,6.85,3.01,11.35,8.26,13.08,5.24,1.73,12.8-.33,16.22-4.25,1.78-2.04,2.37-4.27,2.36-6.95-.07-13.68.17-27.37-.08-41.05-.07-3.96,1.21-4.83,4.88-4.79,9.63.1,9.63-.06,9.63,9.31,0,17.06-.09,34.13.07,51.19.04,3.73-.62,5.89-4.91,5.12-.98-.18-2.04-.14-3.03,0-4.55.65-7.76-.19-6.57-5.74Z"/>
        <path class="cls-1" d="M858.42,384.11c4.2-9.6,8.02-18.3,11.83-27.02,2.29-5.25,4.54-10.53,6.85-15.77,1.18-2.67,10.17-5.01,12.3-3.15,1.52,1.33-.06,2.38-.57,3.51-9.62,21.29-19.25,42.57-28.86,63.86-3.46,7.66-7.07,15.26-10.23,23.04-1.49,3.66-3.48,5.23-7.46,4.65-3.04-.44-7.59,1.47-8.88-.79-1.39-2.44,2.26-5.54,3.7-8.34,3.91-7.61,7.96-15.16,12.12-22.64,1.47-2.65,1.33-4.89.07-7.59-8.28-17.66-16.32-35.43-24.69-53.04-1.41-2.97.33-2.91,1.94-2.96,3.54-.1,7.09.29,10.62.12,2.4-.12,2.61,1.48,3.24,3.01,5.35,13.04,10.72,26.07,16.1,39.1.43,1.04.97,2.03,1.93,4.03Z"/>
        <path class="cls-2" d="M604.27,311.27c-11.29,0-22.59.17-33.88-.09-3.85-.09-4.8,1.04-4.77,4.81.17,27.36-.01,54.72.21,82.09.04,4.58-1.32,5.74-5.72,5.57-8.76-.33-8.77-.09-8.77-8.95,0-26.18-.08-52.36.12-78.54.03-4.14-1.2-4.98-5.12-4.9-12.44.28-24.88.1-37.51.1,2.88-4.53,5.67-8.4,12.76-8.25,23.81.49,47.64.19,71.46.2,7.07,0,8.52,1.09,11.21,7.96Z"/>
        <path class="cls-1" d="M500.67,364.91c-6.76,0-13.52.08-20.27-.04-2.95-.05-4.24.78-4.08,4.05.28,5.62.97,11.04,3.77,16.04,6.49,11.58,21.87,14.46,34.43,6.62,1.88-1.18,3.87-5.01,6.24-2.28,2.44,2.8-1.45,4.55-2.99,6.46-10.89,13.46-43.24,12.97-52.91-9.1-5.76-13.16-3.62-30.46,5.66-40.23,8.65-9.11,25.54-12.27,38.09-6.95,9.57,4.06,14.27,11.75,15.71,21.77.38,2.68-.2,3.93-3.37,3.81-6.75-.26-13.51-.08-20.27-.08,0-.02,0-.04,0-.06ZM494.13,358.03v-.02c3.71,0,7.44-.29,11.11.08,4.5.45,4.35-1.68,3.23-4.77-2.37-6.53-7.81-10.03-14.83-9.52-6.46.47-13.12,5.82-14.47,11.55-.61,2.6.87,2.74,2.83,2.71,4.04-.08,8.08-.02,12.13-.02Z"/>
        <path class="cls-1" d="M285.99,353.29c0-15.19.11-30.38-.07-45.57-.04-3.39.62-4.7,4.34-4.68,10.2.05,10.23-.13,10.23,9.97.01,28.36-.06,56.72.09,85.07.02,3.96-.66,5.69-5.18,5.59-9.4-.2-9.41.07-9.41-9.36,0-13.67,0-27.34,0-41.02Z"/>
        <path class="cls-2" d="M631.71,353.26c0,15.04-.14,30.08.09,45.12.06,3.89-.91,5.43-4.96,5.32-11.67-.31-9.42,1.17-9.46-9.25-.11-28.56.07-57.12-.14-85.67-.03-4.37.9-5.82,5.48-5.64,9.07.36,9.03.09,9.01,9.06-.04,13.69-.01,27.38-.01,41.06Z"/>
        <path class="cls-1" d="M794.68,346.21c4.63-4.34,9.32-7.49,15.32-8.12,1.36-.14,2.75-.5,3.49,1.13,2.04,4.49,4.06,8.99,6.54,14.47-6.25-2.55-11.6-3.64-17.25-2.97-6.59.79-8.82,3-8.87,9.59-.08,12.84-.26,25.68.02,38.51.09,4-1.42,4.79-4.86,4.89-9.58.28-9.57.38-9.57-9.27,0-17.23.08-34.47-.11-51.7-.04-3.48.84-4.64,4.44-4.67,8.83-.08,8.83-.27,10.85,8.12Z"/>
        <path class="cls-2" d="M258.56,346.32c5.08-4.47,10.02-7.75,16.27-8.39,2.6-.27,4.24-.04,3.84,3.32-.36,2.98.92,6.78-.51,8.86-1.6,2.34-5.51.22-8.42.38-9.29.52-11.53,2.61-11.57,11.77-.05,12.33-.16,24.66.03,36.99.06,3.43-1.13,4.29-4.33,4.36-10.17.22-10.17.33-10.17-9.96,0-16.89.1-33.78-.06-50.67-.04-3.71.49-5.94,4.84-4.97.48.11,1.01.01,1.52.01q7.66-.01,8.55,8.3ZM246.22,399.78c.17-.05.34-.1.5-.15v-54.37c-.17,0-.34,0-.5,0v54.51Z"/>
        <path class="cls-1" d="M604,373.55c0,8.76-.18,17.53.1,26.29.1,3.08-.94,3.74-3.63,3.7-12.46-.17-9.99,1.58-10.08-9.48-.14-15.34.09-30.67-.1-46.01-.04-3.42,1.05-4.18,4.25-4.17,9.46.03,9.46-.11,9.46,9.44,0,6.74,0,13.48,0,20.22Z"/>
        <path class="cls-1" d="M597.18,338.15c-.96.2-1-.64-1.33-1.16-.63-.98-1.29-1.93-1.93-2.91-1.46-2.22-4.34-4.51-3.58-6.91,1.08-3.4,3.74-6.3,5.76-9.4.87-1.34,1.81-.63,2.39.21,1.82,2.61,3.62,5.24,5.24,7.97.97,1.63-4.72,12.02-6.54,12.2Z"/>
        <path class="cls-1" d="M246.22,399.78v-54.51c.17,0,.34,0,.5,0v54.37c-.17.05-.34.1-.5.15Z"/>
      </g>
    </g>
  </g>
</svg>