<?xml version="1.0" encoding="UTF-8"?>
<svg id="Layer_2" xmlns="http://www.w3.org/2000/svg" viewBox="0 0 820.83 201.11">
  <defs>
    <style>
      .cls-1 {
        fill: #ffffff;
      }

      .cls-2 {
        fill: #ffffff;
      }

      .cls-3 {
        opacity: .74;
      }

      .cls-4 {
        fill: #ffffff;
      }
    </style>
  </defs>
  <g id="objects">
    <g class="cls-3">
      <path class="cls-1" d="M409.66,201.05c-135.45,0-270.9,0-406.35.05-2.5,0-3.34-.39-3.31-3.17.17-15.33.12-30.66.03-45.99-.01-2.07.33-2.77,2.63-2.77,271.6.06,543.2.06,814.8,0,2.23,0,2.71.63,2.69,2.77-.1,15.33-.12,30.66.01,45.99.02,2.49-.53,3.16-3.11,3.16-135.8-.07-271.6-.06-407.4-.06ZM114.43,177.97c2.88-.54,5.38-.98,7.62-2.28,2.89-1.68,4.51-4.16,4.51-7.49,0-3.46-1.69-6-4.76-7.58-3.35-1.71-6.98-2.28-10.69-2.3-7.55-.04-15.1.05-22.65-.06-1.74-.02-2.19.44-2.17,2.15.08,9.28.04,18.57.04,27.86,0,4.84,0,4.75,4.85,4.73,1.62,0,1.85-.62,1.82-2-.08-3.68.03-7.36-.06-11.04-.03-1.36.35-1.84,1.76-1.81,3.33.09,6.67.09,10.01,0,1.35-.04,2.29.4,3.19,1.38,3.27,3.54,6.92,6.77,9.86,10.56,3.02,3.9,6.72,2.74,10.89,2.75-4.9-5.13-9.43-9.86-14.23-14.88ZM568.52,165.99c.36-.25.71-.51,1.07-.76,7.91,8.18,15.91,16.28,23.68,24.6,2.23,2.38,4.48,3.46,7.74,3.22,1.87-.14,2.29-.62,2.28-2.4-.09-9.37-.04-18.74-.04-28.11,0-4.3,0-4.18-4.26-4.27-1.9-.04-2.09.73-2.07,2.29.07,5.52.03,11.03.03,16.55,0,2.76,0,5.51,0,8.75-.83-.75-1.28-1.13-1.69-1.53-7.66-7.59-15.41-15.08-22.91-22.83-2.33-2.41-4.65-3.55-7.99-3.26-1.69.15-2.2.48-2.18,2.21.08,9.98.17,19.97-.05,29.95-.06,2.82,1.31,2.59,3.14,2.59,1.87,0,3.44.39,3.34-2.64-.26-8.11-.09-16.23-.09-24.35ZM639.68,165.89c.96-.04,1.2.49,1.55.84,8.35,8.23,16.7,16.47,25.04,24.7,1.24,1.22,6.01,2.14,7.57,1.51.79-.32.63-.96.63-1.53,0-10.59,0-21.18.02-31.77,0-1.01-.31-1.43-1.35-1.34-.78.07-1.59.11-2.36,0-2.06-.32-2.64.44-2.61,2.53.13,7.44.06,14.88.03,22.32,0,.71.36,1.55-.49,2.24-.39-.34-.78-.66-1.14-1.01-7.72-7.64-15.54-15.18-23.08-22.98-2.27-2.35-4.52-3.39-7.75-3.17-1.83.12-2.31.54-2.29,2.35.09,9.54.04,19.08.04,28.62,0,3.77,0,3.62,3.68,3.81,2.17.11,2.56-.65,2.53-2.62-.11-8.13-.04-16.26-.04-24.51ZM300.11,192.96c5.44,0,10.88-.02,16.32.02,1.33,0,2.26.08,2.31-1.83.06-2.06-.96-2-2.39-1.99-8.6.03-17.2-.04-25.8.06-1.88.02-2.7-.32-2.54-2.41.2-2.52.2-5.09,0-7.61-.17-2.1.66-2.43,2.54-2.4,7.11.11,14.21.02,21.32.06,1.4,0,2.23-.05,2.21-1.89-.02-1.73-.62-1.98-2.14-1.96-7.28.07-14.57-.01-21.85.07-1.55.02-2.2-.26-2.07-1.97.16-2.18.18-4.39,0-6.56-.17-2.01.53-2.48,2.49-2.45,8.42.11,16.85.03,25.27.07,1.38,0,2.26,0,2.21-1.87-.05-1.62-.45-2.02-2.07-2.01-10.88.08-21.76.07-32.64,0-1.44,0-1.92.31-1.91,1.84.07,10.33.07,20.67,0,31,0,1.48.39,1.9,1.89,1.88,5.61-.09,11.23-.04,16.85-.04ZM723.32,192.96c5.44,0,10.88-.04,16.32.03,1.54.02,2.33-.15,2.34-2.06.01-2-1.08-1.76-2.31-1.76-8.6.01-17.2-.08-25.79.06-2.18.04-2.68-.67-2.55-2.66.16-2.53.15-5.08,0-7.61-.11-1.8.58-2.17,2.25-2.15,7.19.09,14.39.03,21.58.05,1.27,0,2.32.19,2.32-1.79,0-1.92-.79-2.07-2.33-2.05-7.19.06-14.39-.02-21.58.06-1.65.02-2.38-.29-2.24-2.12.17-2.18.17-4.38,0-6.56-.15-1.91.58-2.32,2.37-2.3,8.42.09,16.84.02,25.27.06,1.44,0,2.41.06,2.36-1.98-.05-1.82-.8-1.89-2.2-1.88-10.79.04-21.58.06-32.37-.01-1.56-.01-2.08.28-2.07,1.97.09,10.24.08,20.49,0,30.73-.01,1.63.45,2.06,2.06,2.03,5.52-.1,11.05-.04,16.58-.04ZM20.55,175.38c0,4.37,0,8.74,0,13.12,0,4.52,0,4.42,4.54,4.51,1.85.04,2.17-.62,2.12-2.24-.11-3.58.04-7.17-.07-10.75-.05-1.53.47-1.93,1.94-1.91,5.34.08,10.69.04,16.04.03,2.73,0,5.4-.39,7.98-1.33,4.51-1.65,7.02-4.79,6.95-8.79-.07-4.29-2.57-7.28-7.3-8.77-1.76-.55-3.55-.92-5.41-.92-8.33,0-16.65.04-24.97-.04-1.52-.01-1.89.43-1.86,1.89.09,5.07.03,10.14.03,15.22ZM173.85,193.79c2.42-.05,5.19-.37,7.9-1.2,7.55-2.3,12.37-8.43,12.68-16.22.31-7.81-3.73-14.24-11.02-17.1-7-2.74-14.08-2.67-20.95.43-11.72,5.29-13.57,22.12-3.34,29.85,4.22,3.19,9.15,4.22,14.74,4.24ZM517.49,193.8c2.9-.04,5.75-.42,8.53-1.31,7.32-2.36,11.9-8.31,12.24-15.98.36-7.91-3.62-14.27-10.83-17.2-4.83-1.96-9.83-2.32-14.96-1.52-9.12,1.42-15.07,7.36-16.06,16.14-.89,7.94,3.63,15.21,11.3,18.19,3.15,1.22,6.43,1.66,9.78,1.68ZM355.57,193.56c4.91-.2,9.82-.51,14.19-3.09,5.89-3.48,6.02-10.33.3-14.08-2.89-1.89-6.18-2.82-9.42-3.89-2.4-.79-4.9-1.42-7-2.91-2.53-1.8-2.4-4.54.29-6.1.74-.43,1.59-.73,2.43-.93,4.37-1.08,8.71-.55,12.99.54,1.99.51,1.63-.94,1.84-1.9.2-.96,1.18-2.12-.92-2.47-4.17-.7-8.33-1.09-12.55-.76-3.35.26-6.6.9-9.51,2.68-5.42,3.3-5.53,9.29-.22,12.71,2.67,1.72,5.72,2.55,8.71,3.51,2.82.91,5.77,1.59,8.12,3.53,2.22,1.83,2.25,4.39.13,6.31-.78.71-1.71,1.18-2.71,1.55-5.03,1.87-10.02.91-14.99-.17-1.2-.26-2.15-.43-2.07,1.19.06,1.18-1.52,2.97,1.28,3.22,3.04.27,6.01,1.21,9.12,1.06ZM413.04,193.55c4.57-.12,9.09-.6,13.27-2.65,3.04-1.49,5.02-3.89,5.16-7.34.13-3.27-1.67-5.57-4.37-7.27-2.84-1.8-6.03-2.73-9.18-3.76-2.24-.74-4.51-1.4-6.57-2.59-1.35-.78-2.47-1.83-2.31-3.51.15-1.6,1.2-2.68,2.69-3.28.65-.26,1.32-.44,2-.61,4.11-1.01,8.22-.63,12.21.45,2.44.66,2.12-.96,2.65-2.28.7-1.76-.27-1.83-1.52-2.04-4.25-.71-8.51-1.06-12.82-.62-3.17.32-6.22.98-8.96,2.7-5.28,3.32-5.37,9.18-.19,12.57,1.62,1.06,3.41,1.73,5.22,2.39,3.2,1.17,6.57,1.86,9.63,3.39,2.03,1.01,3.95,2.19,3.67,4.85-.26,2.54-2.2,3.55-4.35,4.35-5.04,1.88-10.02.83-14.99-.24-1.11-.24-1.95-.41-1.83,1.13.09,1.15-1.64,2.86.94,3.25,3.2.48,6.36,1.32,9.64,1.13ZM218.27,175.53c0,4.29,0,8.58,0,12.87,0,4.59,0,4.5,4.49,4.59,1.79.04,2.45-.35,2.37-2.27-.16-4.02.06-8.06-.09-12.08-.07-1.8.55-2.15,2.21-2.13,6.84.09,13.69-.02,20.54.08,1.77.03,1.95-.69,1.98-2.16.03-1.56-.53-1.89-1.97-1.87-4.91.08-9.83.09-14.74,0-2.6-.04-6.16,1.15-7.52-.49-1.31-1.57-.24-5.01-.48-7.6-.19-2.1.65-2.42,2.52-2.39,7.28.1,14.57.01,21.85.07,1.42.01,2.23-.07,2.19-1.9-.04-1.63-.46-2-2.07-1.99-9.74.08-19.48.08-29.23,0-1.58-.01-2.12.35-2.08,2.02.11,5.08.04,10.16.04,15.24ZM769.11,175.54c0,5.07.05,10.15-.03,15.22-.02,1.56.17,2.27,2.07,2.25,9.55-.11,19.1-.09,28.66-.02,1.55.01,2.09-.29,2.13-1.98.04-1.87-.85-1.87-2.22-1.86-7.01.04-14.02-.07-21.03.07-2.22.04-3-.39-2.94-2.82.18-7.78.07-15.57.07-23.35,0-4.83,0-4.73-4.78-4.8-1.73-.03-1.98.56-1.95,2.07.09,5.07.03,10.14.03,15.22ZM467.85,175.66v-13.14c0-4.23,0-4.09-4.24-4.27-2.14-.09-2.59.6-2.56,2.61.11,9.11.05,18.22.05,27.33,0,4.88,0,4.79,4.8,4.81,1.71,0,2.02-.56,1.99-2.11-.09-5.08-.03-10.16-.03-15.24Z"/>
      <path class="cls-1" d="M200.84.28c14.36-1.26,27.87,1.79,40.84,7.76,25.7,11.82,41.59,37.4,39.58,65.43-1.71,23.8-13.86,41.63-34.27,53.7-17.2,10.17-36.15,12.85-55.77,11.32-16.49-1.28-31.82-6.25-44.9-16.61-20.57-16.29-29.07-37.72-24.89-63.52,3.32-20.54,15.63-35.29,32.94-46.16,9.99-6.27,20.89-10.29,32.56-11.82,4.57-.6,9.28-.1,13.91-.1ZM198.25,124.96c20.76-.52,37.17-7.18,49.92-21.51,13.67-15.37,18.01-32.98,10.36-52.53-10.21-26.09-34.25-37.79-59.86-37.43-13.23.18-25.16,4.88-35.81,12.71-21.77,16.01-28.82,43.65-16.31,67.25,11.2,21.13,30.03,30.34,51.71,31.51Z"/>
      <path class="cls-1" d="M383.33,83.39c11.81,15.42,23.49,30.67,35.55,46.42-4.78,0-9.07-.39-13.26.09-5.74.66-9.32-1.38-12.78-6.09-9.64-13.12-19.93-25.75-29.91-38.62-1.1-1.42-2.22-2.04-4.12-2.03-14.48.1-28.96.13-43.44-.01-2.53-.02-2.94.77-2.92,3.05.1,13.66,0,27.33.11,40.99.02,2.27-.65,2.76-2.78,2.66-3.94-.18-7.9-.15-11.84,0-1.88.07-2.32-.52-2.31-2.34.08-13.84.04-27.68.04-41.52,0-21.55.02-43.09-.04-64.64,0-1.96.36-2.64,2.52-2.64,25.98.08,51.96-.04,77.94.11,9.2.05,17.91,2.35,25.38,7.99,13.73,10.38,14.99,31.61,2.73,44.14-5.21,5.33-10.95,8.77-20.87,12.42ZM343.76,32.17s0-.05,0-.08c-9.56,0-19.12.04-28.68-.04-1.88-.02-2.68.23-2.65,2.46.14,11.03.1,22.06.02,33.09-.01,1.73.28,2.37,2.22,2.36,18.78-.08,37.55-.02,56.33-.07,3.86-.01,7.67-.54,11.34-1.89,7.13-2.63,11.52-8.57,11.78-16.1.28-8.15-3.23-13.88-10.48-17.15-3.98-1.79-8.17-2.57-12.5-2.57-9.12-.02-18.25,0-27.37,0Z"/>
      <path class="cls-1" d="M556.68,129.81c2.34-4.3,4.49-8.26,6.65-12.21,17.65-32.18,35.31-64.36,52.92-96.56.91-1.67,1.87-2.36,3.83-2.31,5.96.15,11.94.14,17.9,0,2.08-.05,3.24.55,4.27,2.44,17.85,33.07,35.78,66.09,53.69,99.12,1.46,2.69,2.86,5.4,4.38,8.05.71,1.23.36,1.49-.89,1.48-5.97-.03-11.94-.06-17.9.02-1.53.02-1.88-.97-2.42-1.96-4.51-8.19-9.07-16.36-13.5-24.59-.8-1.49-1.61-2.11-3.39-2.11-22.29.07-44.59.07-66.88,0-1.77,0-2.58.58-3.38,2.11-4.29,8.21-8.75,16.33-13.06,24.53-.8,1.52-1.7,2.07-3.44,2.03-6.11-.12-12.22-.05-18.78-.05ZM656.81,86.76c-9.33-17.49-18.46-34.6-27.78-52.07-9.44,17.6-18.63,34.73-27.94,52.07h55.72Z"/>
      <path class="cls-2" d="M437.4,74.19c0-17.6.03-35.21-.04-52.81,0-1.98.38-2.66,2.54-2.65,33.35.07,66.7.07,100.06,0,1.93,0,2.65.41,2.5,2.44-.19,2.44-.19,4.91,0,7.35.17,2.14-.63,2.58-2.64,2.57-21.68-.07-43.36-.04-65.04-.04-5.7,0-11.41.07-17.11-.04-1.69-.03-2.2.39-2.19,2.14.08,10.33.1,20.67-.01,31-.02,1.92.59,2.22,2.34,2.21,20.1-.06,40.2.01,60.3-.11,2.44-.01,2.96.7,2.79,2.91-.19,2.53-.19,5.09,0,7.61.16,2.04-.58,2.45-2.5,2.44-14.92-.08-29.84-.04-44.76-.04-5.35,0-10.71.09-16.06-.05-1.92-.05-2.08.78-2.08,2.32.05,11.21.09,22.42-.03,33.63-.02,2.14.75,2.33,2.54,2.32,24.49-.05,48.97-.04,73.46-.04,2.72,0,5.45.16,8.16-.05,2.3-.18,2.83.69,2.67,2.79-.18,2.26-.24,4.57.01,6.82.29,2.57-.79,2.99-3.07,2.93-5.7-.15-11.41-.05-17.11-.05-27.3,0-54.59-.03-81.89.06-2.33,0-2.89-.55-2.88-2.87.11-17.6.06-35.21.06-52.81Z"/>
      <path class="cls-2" d="M713.87,74.14c0-17.6.04-35.21-.05-52.81-.01-2.23.62-2.79,2.78-2.68,3.76.19,7.56.23,11.31-.01,2.47-.16,2.82.75,2.81,2.95-.07,31.09-.02,62.18-.11,93.27,0,2.23.58,2.68,2.73,2.68,28.26-.08,56.52-.02,84.78-.11,2.25,0,2.84.6,2.69,2.75-.2,2.7-.09,5.43-.03,8.14.02,1.11-.3,1.64-1.48,1.51-.52-.06-1.05,0-1.58,0-33.61,0-67.22-.04-100.84.07-2.65,0-3.08-.77-3.07-3.2.11-17.51.06-35.03.06-52.55Z"/>
      <path class="cls-2" d="M.49,74.16c0-17.52.06-35.04-.07-52.56-.02-2.53.77-3.07,3.09-2.95,3.68.2,7.37.21,11.05.06,2.05-.08,2.62.5,2.61,2.59-.09,16.12-.05,32.24-.05,48.35,0,14.98.07,29.96-.07,44.94-.02,2.52.78,2.93,3.06,2.93,28.35-.07,56.71-.01,85.06-.11,2.51,0,3.13.74,2.94,3.06-.19,2.35-.17,4.74,0,7.09.14,1.91-.56,2.3-2.36,2.29-15.89-.07-31.78-.04-47.66-.04-18.35,0-36.69-.04-55.04.05-2.09,0-2.61-.56-2.6-2.62.08-17.69.05-35.39.05-53.08Z"/>
      <path class="cls-2" d="M112.17,18.78c-4.84,8.43-9.44,16.43-14.03,24.44-2.52,4.4-5.07,8.78-7.52,13.21-.7,1.27-1.45,1.93-3.04,1.85-2.89-.16-5.79-.11-8.68-.02-1.55.05-1.75-.39-1.16-1.74,5.32-12.15,10.6-24.31,15.87-36.49.41-.94.95-1.29,1.98-1.28,5.34.05,10.67.02,16.58.02Z"/>
      <path class="cls-2" d="M520.02,1.32c-13.69,4.59-27.39,9.18-41.08,13.78-.08-.11-.16-.23-.24-.34,4.22-4.48,8.44-8.96,12.65-13.45.47-.5,1.04-.56,1.67-.56,8.98,0,17.96,0,26.94,0,.02.19.04.38.06.57Z"/>
      <path class="cls-4" d="M173.39,160.94c-9.05,0-15.03,5.74-15.11,14.51-.09,8.87,5.95,14.81,15.08,14.83,9.15.03,15.24-5.83,15.24-14.67,0-8.9-5.99-14.69-15.21-14.68Z"/>
      <path class="cls-4" d="M517.25,160.94c-9.17.03-15.09,5.86-15.06,14.81.04,8.82,6.13,14.59,15.35,14.53,9-.06,14.91-5.88,14.91-14.7,0-8.93-5.96-14.68-15.21-14.65Z"/>
      <path class="cls-2" d="M104.44,174.24c-3.53,0-6.51-.05-9.48.02-1.36.03-2.09-.19-2.01-1.82.13-2.88.08-5.76.02-8.65-.03-1.21.32-1.73,1.62-1.69,6.38.22,12.78-.43,19.13.45,2.3.32,4.44,1.03,5.57,3.36,1.57,3.25-.06,6.55-3.91,7.64-3.76,1.07-7.65.56-10.93.68Z"/>
      <path class="cls-2" d="M38.13,174.11c-3.39,0-6.19-.1-8.99.04-1.69.09-2.07-.51-2-2.08.13-2.79.06-5.59.02-8.39-.02-1.07.28-1.61,1.47-1.57,6.38.23,12.79-.46,19.15.39,3.61.48,5.39,2.25,5.55,5.18.17,3.07-1.52,5.11-5.06,5.99-3.54.88-7.16.22-10.15.44Z"/>
      <path class="cls-2" d="M173.39,160.94c9.22,0,15.21,5.78,15.21,14.68,0,8.84-6.09,14.69-15.24,14.67-9.14-.03-15.17-5.96-15.08-14.83.09-8.77,6.06-14.51,15.11-14.51Z"/>
      <path class="cls-2" d="M517.25,160.94c9.24-.03,15.21,5.71,15.21,14.65,0,8.82-5.91,14.65-14.91,14.7-9.23.06-15.32-5.71-15.35-14.53-.04-8.96,5.89-14.79,15.06-14.81Z"/>
      <path class="cls-2" d="M198.64,68.98q0-6.53,6.76-6.4c4.38.08,5.79,2.48,3.62,6.22-.23.4-.59.64-.14,1.04,1.3,1.14.8,2.78,1.19,4.17.23.82.45,1.63-.88,1.54-.88-.06-2.04.36-2.08-1.23-.02-.69-.21-1.38-.34-2.06-.45-2.34-2.32-1.62-3.78-1.72-1.97-.13-.97,1.39-1.17,2.22-.2.82.33,1.81-.3,2.51-.51.56-1.33.27-2.01.26-.87-.02-.88-.66-.88-1.3,0-1.75,0-3.5,0-5.25ZM203.5,68.41c1.73-.08,3.47.16,3.45-1.86-.02-1.85-1.64-1.63-2.95-1.68-1.33-.05-2.3-.08-2.25,1.82.04,1.7.8,1.87,1.75,1.72Z"/>
      <path class="cls-2" d="M236.55,75.88c-2.33-.03-4.3-.46-5.44-2.4-.37-.63-1.25-1.7-.17-2.21.73-.34,2.07-.76,2.71.61.79,1.69,2.24,1.73,3.79,1.48.72-.11,1.39-.33,1.45-1.23.05-.87-.55-1.27-1.23-1.48-1.16-.37-2.38-.57-3.54-.95-1.75-.57-3.28-1.45-3.16-3.62.11-2.04,1.41-3.02,3.27-3.57,2.38-.71,4.51-.32,6.36,1.25.69.59,1.52,1.69.7,2.41-.63.55-1.98.64-2.84-.3-.23-.25-.38-.62-.65-.79-.95-.62-2.01-.59-3.01-.17-.45.19-.89.67-.68,1.26.36.98,1.36.97,2.17,1.23.75.24,1.53.36,2.28.58,1.98.56,3.61,1.47,3.51,3.9-.11,2.48-1.83,3.39-3.92,3.88-.59.14-1.22.11-1.59.14Z"/>
      <path class="cls-2" d="M177.55,75.38c1.62-4.06,3.19-7.83,4.61-11.66.47-1.26,1.31-1.12,2.27-1.16.97-.05,1.61.16,1.99,1.2,1.23,3.35,2.6,6.66,3.84,10,.19.51,1.17,1.37.02,1.67-.87.23-2.46.72-2.75-.6-.68-3.09-3-1.88-4.78-2.11-.7-.09-1.27.2-1.37.91-.33,2.34-1.92,2.04-3.83,1.74ZM184.19,66.31c-.45,1.41-1.3,2.59-1.29,4.07q3.23.13,1.29-4.07Z"/>
      <path class="cls-2" d="M160.98,68.99c0-.09,0-.18,0-.26.14-1.98-.89-4.95.41-5.73,2.01-1.21,4.93-.56,7.43-.24,1.83.23,2.9,1.53,3.13,3.38.22,1.8-.34,3.29-2,4.2-.85.47-1.77.8-2.76.65-2.27-.34-3.46.34-2.99,2.86.21,1.14-.17,1.78-1.53,1.75-1.18-.03-1.78-.28-1.7-1.62.1-1.65.02-3.32.02-4.98ZM165.87,68.52c1.56-.04,2.95.08,2.99-1.72.03-1.93-1.45-1.79-2.77-1.94-1.52-.17-1.9.43-1.93,1.89-.04,1.65.67,1.97,1.72,1.76Z"/>
      <path class="cls-2" d="M222.31,69.02c0,1.58-.08,3.16.02,4.73.09,1.35-.33,1.84-1.75,1.85-1.46.01-1.49-.73-1.48-1.8.04-3.24.05-6.48,0-9.72-.02-1.09.24-1.59,1.45-1.53,1.06.05,1.88.02,1.78,1.49-.11,1.66-.03,3.32-.03,4.99Z"/>
    </g>
  </g>
</svg>