<?xml version="1.0" encoding="UTF-8"?>
<svg id="Layer_2" xmlns="http://www.w3.org/2000/svg" viewBox="0 0 773.09 102.57">
  <defs>
    <style>
      .cls-1 {
        fill: #ffffff;
      }

      .cls-2 {
        opacity: .44;
      }
    </style>
  </defs>
  <g id="objects">
    <g class="cls-2">
      <path class="cls-1" d="M97.81,51.11c0,15.14-.07,30.28.06,45.41.03,3.13-1.07,3.92-4.11,4.17-5.73.47-9.62-1.39-13.58-5.81-16.47-18.42-33.46-36.38-50.22-54.54-3.56-3.86-6.94-7.89-10.45-11.8-.8-.89-1.36-2.58-3.05-1.77-1.35.64-.88,2.06-.88,3.18,0,21.85.03,43.7.07,65.56,0,5.1.04,5.1-4.95,5.11q-10.6.02-10.59-10.65C.08,61.92.11,33.88,0,5.84-.01,2.36,1.34,1.65,4.64,1.28c6.31-.72,10.2,2.29,14.11,6.6,19.63,21.57,39.44,42.98,59.22,64.42,1.01,1.09,1.94,3.01,3.71,2.3,1.9-.77.83-2.78.83-4.24.02-21.59.04-43.18-.05-64.77-.01-3.25,1.13-4.72,4.44-4.14.26.04.53.02.79.03q10.12.2,10.09,10.54c-.02,13.03,0,26.06,0,39.1h.03Z"/>
      <path class="cls-1" d="M418.7,51.26c0-15.14.04-30.27-.04-45.41-.01-2.24.5-3.65,2.94-3.62,20.52.28,41.08-.98,61.56.6,14.93,1.15,25.74,17.51,22.54,32.19-2.11,9.68-7.14,16.66-16.27,20.63-2.2.95-1.83,2.65-.95,4.28,6.59,12.39,13.17,24.78,19.87,37.11,1.57,2.89.85,3.75-2.26,3.61-3.42-.15-6.86-.28-10.26,0-2.92.25-4.49-1.21-5.57-3.45-5.29-10.98-10.63-21.94-15.69-33.02-1.84-4.02-4.03-6.04-8.88-5.79-8.93.47-17.89.2-26.84.06-3.46-.05-4.94,1.01-4.86,4.77.23,11.18.05,22.37.2,33.56.04,2.81-1.11,3.87-3.68,3.82-14.2-.28-11.63,2.05-11.74-11.06-.11-12.77-.02-25.53-.02-38.3h-.04ZM458.9,15.53s0-.06,0-.08c-6.7,0-13.41.13-20.1-.05-3.58-.1-5.2.78-4.99,4.84.36,6.81.21,13.66.03,20.49-.08,3.01.82,4.27,3.99,4.24,13.14-.13,26.28,0,39.42-.12,8.17-.07,14.6-6.78,14.61-14.92.01-8.79-5.07-14.11-14.04-14.37-6.3-.18-12.61-.03-18.92-.03Z"/>
      <path class="cls-1" d="M205.47,100.58c-1.32,0-2.67-.2-3.94.04-3.04.58-4.66-.87-5.8-3.47-1.95-4.45-4.22-8.77-5.97-13.3-1.58-4.1-3.68-6.18-8.61-6.04-13.42.38-26.86.18-40.29.03-3.05-.03-4.88.88-6.07,3.77-2.14,5.21-4.73,10.24-6.85,15.47-1,2.46-2.57,3.54-5.03,3.57-3.42.04-6.85-.04-10.27,0-2.84.04-3.18-1.55-2.23-3.6,7.75-16.76,15.6-33.46,23.34-50.22,5.48-11.87,10.83-23.8,16.27-35.68.6-1.3,1.49-2.47,2.03-3.79,2.9-7.17,2.87-7.18,9.89-7.17,7.07,0,7.08.28,10.64,8.47,5.2,11.98,10.74,23.82,16.16,35.7,4.52,9.91,9.07,19.81,13.62,29.7,3.43,7.45,6.82,14.92,10.34,22.33,1.79,3.77,1.58,4.25-2.51,4.22-1.58-.01-3.16,0-4.74,0v-.02ZM161.43,64.56s0-.05,0-.07c4.73,0,9.46.02,14.2-.01,1.38-.01,3.16.79,4.02-.67.95-1.6.1-3.43-.81-4.81-1.88-2.88-2.74-6.17-4.12-9.25-3.8-8.47-7.4-17.03-11.1-25.55-.41-.94-.73-2.17-1.97-2.24-1.74-.1-1.43,1.59-1.86,2.55-5.43,12.19-10.79,24.41-16.25,36.58-1.28,2.86-.09,3.52,2.5,3.49,5.13-.05,10.25-.02,15.38-.02Z"/>
      <path class="cls-1" d="M618.93,102.51c-16.82.63-31.04-5.11-42.17-17.28-12.92-14.14-16.59-30.58-10.99-49.23C572.09,14.95,595.45-.27,616.96,0c13.18.16,25.23,2.62,36.08,10.13,3.23,2.24,6.1,4.95,8.91,7.72,2.02,2,1.53,3.35-.51,4.69-1.85,1.21-4.09,2.05-5.52,3.63-2.79,3.07-4.49,1.94-6.95-.52-9.33-9.34-20.88-13.67-33.9-12.27-25.22,2.71-44.56,25.67-33.22,53.03,4.55,10.98,13.61,17.5,24.94,21.1,11.07,3.52,21.54,1.94,31.76-2.82,3.94-1.84,7.49-4.39,10.42-7.6,2-2.2,3.53-3.12,6.05-.53,1.49,1.53,3.77,2.32,5.74,3.38,2.64,1.43,3.43,2.76.86,5.34-11.85,11.93-25.98,17.95-42.67,17.22Z"/>
      <path class="cls-1" d="M390.78,73.23c.24,1.85.46,3.69-1.64,4.72-1.04.1-1.93.28-.86,1.55-2.41,6.64-6.41,11.95-12.82,15.22-1.28-.25-2.05.15-2.02,1.58-2.69,1.77-5.22,3.92-8.78,3.5-3.13-.24-6.02.51-8.68,2.15-5.78.79-11.56.76-17.35-.02-.34-1.05-.83-1.39-1.59-.31-.86.49-1.66.48-2.37-.28-.91-1.65-2.16-2.29-3.95-1.3-1.86.32-3.46-.12-4.76-1.54-.16-1.46-1.02-1.68-2.24-1.27-7.55-2.72-12.53-8.12-15.94-15.18-1.99-4.78-2.24-10.25-5.81-14.39-.64-.7-.72-1.5-.43-2.38,2.11-3.18-.15-6.34-.11-9.52.18-14.57.07-29.15.09-43.72,0-2.49-.68-5.43.41-7.34,1.32-2.32,4.68-.29,6.94-1.09,3.87-1.38,4.48.41,4.46,3.75-.09,15.36-.06,30.73-.02,46.09,0,3.63.68,7.14,2.64,10.3.52.48.57,1.04.28,1.66-.47,5.23,2.26,9.04,5.56,12.61,1.71.81,2.4,2.49,3.36,3.94.32,1.96,1.35,3.09,3.45,3l.37-.07.15.35c.22,1.75,1.23,2.34,2.89,2,.74-.22,1.36-.04,1.84.57,1.65,2.03,3.47,3.57,6.3,2.1.6-.3,1.14-.26,1.61.25,2.45,1.76,8.54,1.78,11.09.05.48-.5,1.03-.55,1.63-.24,2.29,1.09,4.14.65,5.47-1.59,7.24-3.79,12.78-9.21,16.15-16.74,1.82-1.41,3.84-2.74,2.12-5.51-.31-1.98-.09-3.85,1.05-5.55,2.55-1.11,2.02-3.42,2.03-5.44.03-14.61.02-29.21.02-43.82,0-7.69,0-7.51,7.74-7.7,3.42-.08,4.13,1.15,4.1,4.3-.14,15.13-.08,30.27-.03,45.4,0,1.37-.56,2.93.78,4.08.5.87.38,1.66-.33,2.37-2.16,1.34-1.4,3.02-.54,4.71.41,2.33.28,4.54-1.5,6.36-1.75.33-2.08,1.1-.73,2.38Z"/>
      <path class="cls-1" d="M236.01,57.83c0-12.89-.1-25.79.08-38.68.04-2.87-.88-3.7-3.54-3.67-8.42.08-16.84-.1-25.26.07-3.61.07-4.75-1.04-4.52-4.81.56-9.24.36-9.25,9.7-9.25,22.1,0,44.21.07,66.31-.07,3.86-.02,5.29.93,5.1,5.09-.42,9.64,1.64,8.95-9.2,8.96-6.71,0-13.42.04-20.13,0-2.29-.02-3.67.43-3.66,3.26.11,24.6.1,49.2.14,73.81,0,1.31-.04,2.67.25,3.93.79,3.37-.88,4.22-3.81,4.14-2.63-.07-5.27-.1-7.89.06-2.8.17-3.69-1.1-3.68-3.76.07-13.02.03-26.05.03-39.07h.07Z"/>
      <path class="cls-1" d="M530.02,51.5c0-15.14.06-30.28-.06-45.41-.02-2.6.88-3.62,3.37-3.62,2.76,0,5.53-.09,8.29-.16,2.61-.06,3.75,1.07,3.75,3.8-.06,30.28-.08,60.55,0,90.83,0,2.85-1.14,3.64-3.71,3.72-11.6.37-11.6.41-11.6-11.25,0-12.64,0-25.27,0-37.91h-.04Z"/>
      <path class="cls-1" d="M721.95,2.04c8.17-2.58,8.58,4.56,10.73,8.97,6.84,13.97,12.95,28.3,19.77,42.29,5.45,11.17,10.05,22.75,15.43,33.95,1.46,3.03,2.18,6.47,4.44,9.12.95,1.12.92,2.59.34,3.72-.54,1.04-1.91,1.65-3.08,1.19-3.21-1.26-6.52-.64-9.76-.59-2.53.04-3.8-.99-4.74-3.21-2.14-5.05-4.61-9.95-6.66-15.03-1.15-2.85-3.06-3.49-5.85-3.47-10,.1-20-.11-30,.1-3.83.08-7.56-.74-11.37-.67-2.86.05-4.56,1.18-5.67,3.89-2.23,5.45-4.8,10.75-7.15,16.15-.68,1.56-1.77,2.16-3.37,2.16-3.67.01-7.34-.18-10.97.69-1.13.27-2.26.32-2.98-1.14-.57-1.16-.28-1.98.27-2.91,4.44-7.55,7.6-15.73,11.36-23.61,5.63-11.81,10.9-23.79,16.34-35.69,4.68-10.23,9.47-20.4,14.04-30.67,1.78-3.99,3.78-7.07,8.87-5.24ZM763.72,99.25c1.95,0,3.14-.05,4.32.01,3.08.16,4.21-.31,2.17-3.64-2.37-3.87-4.06-8.16-5.94-12.32-4.34-9.61-8.24-19.44-13.03-28.82-3.87-7.58-7.27-15.38-10.89-23.05-3.85-8.14-8.07-16.16-11.18-24.66-.75-2.04-2.18-3-4.51-3.08-8.32-.28-8.31-.35-11.45,7.17-.55,1.32-1.17,2.61-1.77,3.91-5.65,12.21-11.32,24.4-16.95,36.62-1.89,4.1-3.59,8.3-5.53,12.38-1.96,4.11-3.54,8.44-5.63,12.42-3.57,6.81-6.01,14.11-9.73,20.83-.55.99-.95,2.16.83,2.19,3.55.06,7.11.04,10.66-.05,1.13-.03,1.96-.83,2.38-1.84,1.74-4.2,3.23-8.5,5.16-12.6,1.82-3.88,3.27-8.36,8.93-8.33,13.82.05,27.64-.07,41.46.13,1.83.03,4.38-.11,5.48,2.26,2.28,4.91,5.16,9.67,6.58,14.82,1.51,5.5,4.81,6.23,8.65,5.66Z"/>
      <path class="cls-1" d="M315.96,63.76c-1.96-3.16-2.63-6.67-2.64-10.3-.04-15.36-.07-30.73.02-46.09.02-3.34-.59-5.13-4.46-3.75-2.26.8-5.62-1.23-6.94,1.09-1.09,1.91-.41,4.86-.41,7.34-.02,14.57.1,29.15-.09,43.72-.04,3.18,2.22,6.34.11,9.52-1.19-3.91-1.57-7.96-1.59-12.01-.1-15.91-.03-31.82-.15-47.74-.02-2.94,1.17-4.09,3.95-4.02,2.37.06,4.73.07,7.1.05,3-.03,4.06,1.3,4.03,4.38-.15,14.86,0,29.72-.15,44.58-.05,4.48,1.48,8.76,1.22,13.22Z"/>
      <path class="cls-1" d="M393.89,57.41c-1.34-1.15-.78-2.7-.78-4.08-.04-15.13-.11-30.27.03-45.4.03-3.16-.68-4.39-4.1-4.3-7.73.19-7.73,0-7.74,7.7,0,14.61.01,29.21-.02,43.82,0,2.02.53,4.33-2.03,5.44.99-18.35.3-36.71.43-55.07,0-.65-.14-1.54.21-1.91,3.44-3.65,7.86-1.31,11.83-1.71,2.8-.28,2.79,2.16,2.79,4.18,0,10.38-.02,20.77,0,31.15.02,5.52.17,11.03.16,16.55,0,1.22.54,2.66-.79,3.63Z"/>
      <path class="cls-1" d="M301.98,67.67c3.57,4.14,3.82,9.61,5.81,14.39-.78.22-1.16-.19-1.5-.84-2.26-4.26-3.4-8.87-4.31-13.55Z"/>
      <path class="cls-1" d="M321.8,78.03c-3.3-3.56-6.03-7.38-5.56-12.61,1.85,4.2,3.71,8.4,5.56,12.61Z"/>
      <path class="cls-1" d="M352.85,90.23c-2.55,1.74-8.64,1.71-11.09-.05,3.7.02,7.39.03,11.09.05Z"/>
      <path class="cls-1" d="M355.97,101.96c2.66-1.64,5.55-2.39,8.68-2.15-2.62,1.81-5.42,2.93-8.68,2.15Z"/>
      <path class="cls-1" d="M340.15,89.93c-2.82,1.47-4.64-.07-6.3-2.1,2.1.7,4.2,1.4,6.3,2.1Z"/>
      <path class="cls-1" d="M378.21,66.15c1.72,2.77-.3,4.1-2.12,5.51-.39-2.26,1.33-3.7,2.12-5.51Z"/>
      <path class="cls-1" d="M359.95,88.4c-1.32,2.24-3.17,2.68-5.47,1.59,1.7-.94,3.58-1.29,5.47-1.59Z"/>
      <path class="cls-1" d="M393.02,64.49c-.85-1.69-1.62-3.37.54-4.71.64,1.67.48,3.24-.54,4.71Z"/>
      <path class="cls-1" d="M328.61,84.97c-2.1.09-3.13-1.05-3.45-3,1.82.23,2.54,1.73,3.45,3Z"/>
      <path class="cls-1" d="M330.72,100.04c1.78-.99,3.03-.35,3.95,1.3-1.64.53-2.9-.06-3.95-1.3Z"/>
      <path class="cls-1" d="M332.01,87.26c-1.66.34-2.68-.26-2.89-2,1.45-.03,2.26.86,2.89,2Z"/>
      <path class="cls-1" d="M390.78,73.23c-1.34-1.28-1.02-2.05.73-2.38.38.99.14,1.78-.73,2.38Z"/>
      <path class="cls-1" d="M388.28,79.51c-1.06-1.27-.18-1.46.86-1.55.12.74-.15,1.27-.86,1.55Z"/>
      <path class="cls-1" d="M373.44,96.3c-.03-1.43.74-1.83,2.02-1.58-.39.89-.99,1.52-2.02,1.58Z"/>
      <path class="cls-1" d="M323.73,97.24c1.22-.41,2.08-.2,2.24,1.27-1.06.13-1.84-.23-2.24-1.27Z"/>
      <path class="cls-1" d="M337.04,101.63c.76-1.08,1.24-.74,1.59.31-.65.51-1.19.46-1.59-.31Z"/>
      <path class="cls-1" d="M763.72,99.25c-3.84.57-7.14-.16-8.65-5.66-1.42-5.16-4.29-9.91-6.58-14.82-1.1-2.37-3.65-2.23-5.48-2.26-13.82-.2-27.64-.08-41.46-.13-5.66-.02-7.11,4.45-8.93,8.33-1.93,4.1-3.42,8.41-5.16,12.6-.42,1.01-1.26,1.81-2.38,1.84-3.55.09-7.1.11-10.66.05-1.79-.03-1.38-1.2-.83-2.19,3.72-6.71,6.17-14.02,9.73-20.83,2.09-3.99,3.66-8.31,5.63-12.42,1.95-4.08,3.64-8.27,5.53-12.38,5.63-12.22,11.3-24.41,16.95-36.62.6-1.3,1.22-2.59,1.77-3.91,3.14-7.52,3.13-7.45,11.45-7.17,2.33.08,3.77,1.04,4.51,3.08,3.11,8.5,7.33,16.53,11.18,24.66,3.63,7.66,7.02,15.47,10.89,23.05,4.79,9.38,8.69,19.21,13.03,28.82,1.88,4.16,3.57,8.45,5.94,12.32,2.04,3.33.91,3.8-2.17,3.64-1.18-.06-2.37-.01-4.32-.01ZM721.59,65.31s0-.04,0-.06c1.97,0,3.95,0,5.92,0,1.97,0,3.95-.02,5.92,0q7.54.05,4.66-7.05c-.15-.37-.26-.75-.42-1.11-4.59-10.44-9.18-20.89-13.8-31.32-.45-1.02-.62-2.55-2.21-2.35-1.28.16-1.22,1.54-1.63,2.47-5.26,11.99-10.51,23.97-15.8,35.94-1.13,2.56-.65,3.63,2.36,3.53,4.99-.16,9.99-.04,14.99-.04Z"/>
    </g>
  </g>
</svg>