<?xml version="1.0" encoding="UTF-8"?>
<svg id="Layer_2" xmlns="http://www.w3.org/2000/svg" viewBox="0 0 452.72 191.57">
  <defs>
    <style>
      .cls-1 {
        fill: #ffffff;
      }

      .cls-2 {
        opacity: .74;
      }
    </style>
  </defs>
  <g id="objects">
    <g class="cls-2">
      <path class="cls-1" d="M261.59,187.16c-.1.05-.15.1-.22.11q-5.5.35-7.53-4.74c-5.3-13.26-10.61-26.53-15.91-39.79-.21-.51-.41-1.03-1.15-1.48,0,1.87,0,3.74,0,5.61,0,12.71-.03,25.41.04,38.12,0,1.75-.3,2.48-2.24,2.38-3.28-.16-3.3-.03-3.29-3.28.04-18.23.07-36.47.18-54.7,0-1.69-.37-2.18-2.14-2.18-29.5.06-59.01.06-88.51,0-1.73,0-2.14.43-2.13,2.14.07,18.54,0,37.08.1,55.62.01,2.04-.64,2.21-2.46,2.44-4.18.53-6.86-.91-8.94-4.58-1.98-3.49-4.58-6.64-7.13-10.26-1.68,4.11-3.37,7.84-4.7,11.68-.84,2.42-1.89,3.55-4.69,3.14-2.86-.42-2.89-.13-1.8-2.78,2.17-5.32,4.28-10.66,6.54-15.94.53-1.25.42-2.1-.34-3.17-23.42-32.96-46.8-65.94-70.2-98.91C32.38,48.74,19.66,30.89,6.96,13.03c-.41-.58-.83-1.16-1.64-2.28,0,1.43,0,2.26,0,3.1,0,57.03,0,114.05-.03,171.08,0,.77.6,2.06-.58,2.27-1.41.26-2.92.02-4.39-.06-.1,0-.24-.48-.26-.75-.04-.59-.01-1.18-.01-1.77C.06,125.39.07,66.14,0,6.9c0-2.28.65-2.55,2.76-2.78,4.02-.44,6.12,1.35,8.33,4.47,35.29,49.95,70.72,99.81,106.12,149.69.51.72,1.03,1.42,1.67,2.29,2.4-5.89,4.73-11.6,7.06-17.32,2.08-5.11,4.14-10.23,6.26-15.33.84-2.02,1.19-4.09,1.19-6.25,0-35.9,0-71.8,0-107.7,0-2.66-.03-5.31-.16-7.97-.06-1.3.23-1.81,1.67-1.81,3.85-.01,3.85-.09,3.85,3.84v102.72c1.11-.43,1.06-1.29,1.31-1.9,13.79-33.96,27.57-67.92,41.25-101.93.86-2.14,1.85-2.87,4.13-2.75,3.97.21,3.97.06,5.48,3.92,13.15,33.5,26.69,66.85,39.58,100.45.1.26.26.5.81.75,0-3.16,0-6.32,0-9.48.04-18.54.12-37.08.13-55.61,0-12.63-.05-25.26-.17-37.88-.01-1.62.33-2.12,2.04-2.12,24.92.06,49.84-.05,74.76.08,10.75.06,21.37,1.33,31.29,5.94.75.35,1.32.25,2.02-.16C353.91,2.82,367.6.22,381.91.02c10.85-.15,21.55.64,31.91,4.13,19.03,6.42,30.02,19.78,33.89,39.27.7,3.55.97,7.15,1.21,10.76.1,1.5-.41,1.72-1.68,1.74-3.25.05-3.22.09-3.59-3.09-1.04-8.99-2.81-17.76-7.83-25.55-6.83-10.6-16.9-16.59-28.86-19.31-19.69-4.48-39.11-3.81-57.88,4.44-.99.44-1.95.96-2.98,1.48,19.33,13.85,21.47,50.09,7.03,67.67,5.34,2.06,10.78,3.57,16.27,4.9,15.9,3.86,31.94,7.19,47.61,11.94,5.72,1.73,11.26,3.94,16.46,6.93,9.62,5.53,15.76,13.59,17.93,24.54,2.25,11.36,1.9,22.5-3.43,33.01-5.55,10.93-14.86,17.73-25.89,22.39-9.56,4.03-19.6,5.89-29.95,6.21-13.16.41-26.12-.63-38.58-5.29-22.11-8.28-33.98-24.46-36.75-47.64-.41-3.45-.54-6.91-.65-10.37-.04-1.27.22-1.99,1.68-1.78.5.07,1.04,0,1.55-.06,1.46-.18,2.16.08,2.22,1.9.29,8.58,1.4,17.05,4.57,25.11,5.31,13.53,15.24,22.3,28.52,27.64,1.17.47,1.43.28,1.24-.93-2.12-13.83-1.75-27.8-2.33-41.72-.24-5.84-1.29-11.58-3.61-17-4.22-9.86-12.27-14.95-22.24-17.52-5.89-1.52-11.93-2.17-17.99-2.19-23.51-.08-47.03-.01-70.54-.07-1.85,0-2.56.31-2.49,2.36.19,6.2.17,12.4.18,18.6,0,1.22.29,2.32.73,3.42,7.81,19.79,15.61,39.58,23.42,59.36.24.6.63,1.15.53,1.83ZM335.37,14.24c-1.56-.52-2.8-.97-4.05-1.34-9.3-2.78-18.82-3.28-28.47-3.22-21.29.15-42.59.06-63.88.01-1.61,0-2.24.24-2.24,2.1.07,27.48.07,54.95,0,82.43,0,1.67.41,2.04,2.06,2.04,22.03-.06,44.06,0,66.1-.06,8.93-.02,17.65-1.31,25.92-4.87,4.53-1.95,8.78-4.36,12.61-7.69-1.5-.93-2.84-1.7-4.13-2.56-4.33-2.89-8.35-6.14-11.22-10.54-7.57-11.58-7.72-24.19-4.65-37.05,1.79-7.5,6.23-13.59,11.95-19.24ZM324.59,98.69c2.78.66,5.58,1.27,8.34,2,11.59,3.08,19.71,9.88,23.41,21.57,2.62,8.29,2.78,16.84,3.02,25.38.31,11.2.41,22.41,2.27,33.52.26,1.58.85,2.2,2.4,2.56,12.61,2.91,25.32,3.26,38.06,1.42,10.33-1.49,19.94-4.95,28.69-10.88,22.65-15.36,23.47-54.62-6.14-67.26-10.46-4.46-21.42-6.92-32.39-9.5-14.19-3.33-28.59-5.91-42.28-11.16-1.1-.42-1.62.01-2.3.6-3.03,2.62-6.38,4.75-9.96,6.54-4.19,2.11-8.64,3.54-13.12,5.2ZM229.54,121.85c-14.48-37.35-28.9-74.53-43.46-112.08-.44,1-.75,1.64-1.02,2.3-14.88,35.73-28.83,71.83-43.5,107.65-.67,1.64-.66,2.18,1.4,2.17,21.51-.07,43.03-.04,64.54-.04h22.04ZM326.99,44.51c0,16.6,5.48,26,17.84,33.23,2.93,1.71,2.96,1.74,4.82-1.06,6.73-10.14,8.43-21.31,6.91-33.2-1.31-10.29-5.7-18.78-13.97-25.21-1.29-1.01-2.04-.82-3.13.16-8.59,7.66-12.26,17.43-12.46,26.07ZM133.28,180.95v-39.63c-.28.31-.46.43-.53.6-3.19,7.76-6.36,15.53-9.55,23.29-.24.58-.38,1.04.05,1.63,3.25,4.53,6.46,9.08,10.03,14.11Z"/>
      <path class="cls-1" d="M132.75,141.93c.07-.17.25-.29.53-.6"/>
    </g>
  </g>
</svg>