<?xml version="1.0" encoding="UTF-8"?>
<svg id="Layer_2" xmlns="http://www.w3.org/2000/svg" viewBox="0 0 890.04 191.25">
  <defs>
    <style>
      .cls-1 {
        fill: #ffffff;
      }

      .cls-2 {
        opacity: .84;
      }
    </style>
  </defs>
  <g id="objects">
    <g class="cls-2">
      <path class="cls-1" d="M370.88,27.59c-3.56,19.15-7.21,38.28-10.65,57.46-2.28,12.66-4.32,25.37-6.35,38.08-.94,5.9.22,7.26,6.25,8.37,1.18.22,2.5-.03,3.87,1.2h-33.59c.85-1.18,1.94-1.11,2.84-1.17,5.56-.36,7.77-3.69,8.79-8.82,7.73-38.87,15.62-77.7,23.39-116.55.6-2.99,1.42-5.63,4.87-5.88,3.32-.24,4.9,2.05,6.05,4.85,15.08,36.77,30.18,73.52,45.29,110.28.62,1.51,1.29,3,2.26,5.24,1.55-3.87,2.86-7.05,4.12-10.26,13.53-34.37,27.05-68.75,40.57-103.12.47-1.18.9-2.38,1.41-3.55,1.09-2.5,3.02-3.76,5.74-3.53,2.89.25,3.56,2.34,3.88,4.83,5.32,41.34,10.66,82.68,16.1,124,.37,2.82.02,3.75-3.11,3.69-9.68-.19-9.65-.05-10.87-9.52-4.07-31.6-8.17-63.2-12.26-94.8-.08-.6-.24-1.19-.46-2.22-1.62,1.39-1.86,3.04-2.41,4.45-13.78,35.22-27.53,70.45-41.27,105.69-.89,2.28-1.59,4.86-4.6,4.92-3.26.07-3.93-2.73-4.89-5.08-14.19-35.07-28.39-70.14-42.59-105.21-.46-1.14-.99-2.26-1.48-3.39-.3.01-.59.03-.89.04Z"/>
      <path class="cls-1" d="M642.39,131.99c.13-.87.72-.84,1.15-.97,8.23-2.46,8.63-2.7,9.23-11.13.92-12.85.4-25.74.48-38.61.16-25.88.19-51.76.12-77.64,0-2.8.55-3.69,3.51-3.63,10.45.19,20.91-.11,31.36.08,10.72.2,20.7,2.74,28.73,10.46,3.38,3.25,5.65,7.16,7,11.65,5.72,18.98-1.25,38.64-17.66,49.11-2.61,1.67-.49,2.48.26,3.31,7.31,7.99,14.6,16.01,22.11,23.82,17.31,18.02,34.67,36,55.36,50.3,24.69,17.07,51.67,25.53,81.91,21.85,1.44-.18,2.92-.02,4.34-.02-21.99,6.48-43.96,6.11-66-.34-20.78-6.08-37.37-18.79-53.24-32.79-20.3-17.91-38.01-38.4-57.15-57.46-2.08-2.07-4.1-2.96-6.99-2.86-5.48.2-10.97.12-16.45.02-1.92-.04-2.68.41-2.66,2.51.12,12.62.1,25.24.14,37.86,0,.89.09,1.78.2,2.67,1.09,8.77,2.28,9.92,10.97,10.79,1.23.12,2.56-.08,4.14,1h-40.87ZM670.01,38.22c0,8.54.15,17.08-.08,25.62-.08,2.84,1,4.15,3.41,5.09,6.27,2.43,12.68,2.47,19.21,1.52,7.61-1.1,13.47-4.87,16.8-11.77,5.71-11.85,6.18-24.13,1.1-36.27-3.05-7.28-8.63-12.37-16.51-14.11-6.9-1.53-13.91-1.26-20.91-.23-2.41.35-3.09,1.43-3.05,3.78.13,8.79.05,17.59.05,26.38Z"/>
      <path class="cls-1" d="M109.83,114.14c0,4.47-.07,8.03.03,11.59.05,1.62-.33,2.49-2.06,2.98-28.19,7.97-55.54,7.08-81.21-8.37C11.6,111.32,2.97,97.8.88,80.34c-1.35-11.34-1.34-22.67,1.35-33.84C7.3,25.43,20.92,12.32,40.93,5.19,56.81-.46,73.16-.65,89.66.99c8.25.82,16.41,2.24,24.5,4.06,2,.45,2.68,1.22,2.58,3.29-.42,8.79-.65,17.58-1.04,26.37-.04.99.3,2.7-1.22,2.72-1.31.02-.89-1.59-1.08-2.5-.34-1.62-.57-3.26-.81-4.9-1.2-8.24-5.91-13.82-13.55-16.57-17.83-6.41-35.95-7.04-53.98-1.04-9.53,3.17-16.82,9.59-21.48,18.56-10.23,19.71-11.14,40.05-2.87,60.57,4.29,10.64,12.01,18.62,22.28,23.78,12.61,6.34,26.05,9.61,40.21,9.33,9.79-.2,18.84-2.78,26.64-10.51Z"/>
      <path class="cls-1" d="M302.77,191.25c5.66-12.93,8.91-26.15,8.38-40.08-.99-26.01-12.76-46.78-31.63-63.96-9.42-8.57-19.97-15.86-28.68-25.24-5.79-6.23-10.68-13.03-13.04-21.33-3.49-12.29.2-23.88,10.69-31.51,14.87-10.84,31.22-11.09,48.12-5.59.89.29,1.72.59,1.69,1.74-.17,7.47-.04,14.97-1.56,23.1-1.85-2.37-1.82-4.56-2.13-6.55-.81-5.3-3.75-8.81-8.61-10.79-5.62-2.29-11.46-3.48-17.55-3.01-15.74,1.22-23.33,17.34-14.29,30.44,3.94,5.71,9.24,10.19,14.24,14.9,11.06,10.4,22.4,20.68,30.36,33.72,19.72,32.33,24.82,65.92,7.05,100.96-.59,1.17-.68,3.07-3.03,3.19Z"/>
      <path class="cls-1" d="M572.87,28.32c-3.18,9.61-6.23,18.76-9.25,27.92-7.26,22.01-14.52,44.02-21.77,66.03-.4,1.21-.75,2.44-.98,3.69-.49,2.64.35,4.47,3.21,5.08,1.94.42,3.83,1.01,5.7,1.92h-36.06l-.1-.51c1.85-.41,3.68-.98,5.56-1.19,5.73-.64,9.19-3.98,11.16-9.12,4.8-12.47,9.63-24.93,14.33-37.44,10.26-27.29,20.45-54.61,30.67-81.91.26-.68.64-1.32,1.2-2.46,3.85,10.74,7.55,21.03,11.24,31.33,11.73,32.73,23.42,65.47,35.26,98.16,1.06,2.94.76,3.57-2.41,3.52-9.28-.12-9.29,0-12.44-8.82-10.92-30.58-21.82-61.17-32.75-91.75-.5-1.39-.64-3-2.57-4.45Z"/>
      <path class="cls-1" d="M842.88.04c4.82,13.4,9.31,25.84,13.77,38.29,10.96,30.57,21.87,61.15,32.92,91.68,1.03,2.83.48,3.34-2.35,3.33-9.36-.02-9.38.07-12.51-8.7-10.92-30.58-21.83-61.17-32.75-91.75-.5-1.4-1.06-2.77-1.63-4.23-1.6.42-1.63,1.53-1.92,2.42-9.91,29.98-19.85,59.95-29.72,89.95-2.85,8.65-2.63,8.91,6.13,11.12.48.12.96.26,1.41.76h-36.26c-.01-.14-.02-.27-.03-.41,1.58-.36,3.15-.94,4.75-1.05,6.97-.48,10.58-4.87,12.86-10.84,3.99-10.47,7.97-20.94,11.91-31.43,11.05-29.43,22.07-58.87,33.42-89.14Z"/>
      <path class="cls-1" d="M161.79,132.97h-36.13c-.02-.16-.05-.33-.07-.49,1.9-.41,3.79-.98,5.71-1.2,5.72-.64,9.21-4.01,11.18-9.11,5.01-12.95,9.97-25.91,14.86-38.91,10.32-27.41,20.58-54.85,30.88-82.3,1.45.47,1.32,1.84,1.67,2.81,15.13,42.07,30.2,84.17,45.36,126.23.94,2.6.71,3.36-2.29,3.35-9.33-.03-9.39.12-12.54-8.69-10.82-30.22-21.6-60.46-32.41-90.69-.63-1.76-.97-3.67-2.37-5.38-1.33.72-1.39,2.06-1.75,3.16-9.89,29.88-19.77,59.76-29.62,89.65-2.63,7.99-2.32,8.47,5.87,10.64.61.16,1.22.33,1.83.5-.06.14-.11.28-.17.42Z"/>
    </g>
  </g>
</svg>