<?xml version="1.0" encoding="UTF-8"?>
<svg id="Layer_2" xmlns="http://www.w3.org/2000/svg" viewBox="0 0 820.83 107.33">
  <defs>
    <style>
      .cls-1 {
        fill: #ffffff;
      }

      .cls-2 {
        opacity: .44;
      }
    </style>
  </defs>
  <g id="objects">
    <g class="cls-2">
      <path class="cls-1" d="M560.89,79.33c-5.54-8.2-8.33-17.34-7.11-27.1,1.45-11.62,6.5-21.77,15.11-29.96,9.91-9.43,22.12-14.01,35.23-16.69,6.07-1.24,12.2-1.53,18.39-1.52,62.2.05,124.4.03,186.6.04,1.97,0,3.97-.23,5.88.51,3.46,1.35,5.78,5.06,5.37,8.6-.46,3.98-3.6,7.15-7.54,7.53-1.09.1-2.2.04-3.31.04-63.86,0-127.71-.15-191.57.13-13.03.06-25.47,3.51-35.89,12.03-6.57,5.37-10.57,12.53-11.57,20.79-1.17,9.75,3.3,17.48,11.09,23.21,9.39,6.91,20.39,9.43,31.62,11.32,3.18.53,6.36.51,9.55.51,62.53,0,125.06,0,187.6,0,5.89,0,8.87,1.76,10.13,5.95,1.52,5.06-2,10.26-7.27,10.68-.99.08-1.98.02-2.98.02-60.99,0-121.98-.14-182.96.1-14.29.06-27.99-2.07-41.52-7.22-.16,1.11-.18,2.15-.47,3.12-1.65,5.54-7.47,7.57-13.13,4.44-16.62-9.19-33.21-18.42-49.75-27.74-2.29-1.29-4.51-1.92-7.14-1.92-61.32.08-122.64.09-183.96.1-.19,0-.38-.13-.81-.28.76-1.27,2.15-1.5,3.19-2.12,7.37-4.36,14.82-8.59,22.17-12.99,1.89-1.13,3.75-1.56,5.92-1.55,41.69.07,83.37.09,125.06.11.26,0,.53-.17,1.23-.4-9.02-4.99-17.7-9.79-26.37-14.6-14.87-8.25-29.77-16.48-44.59-24.82-1.85-1.04-3.17-1.08-5.01,0-31.33,18.41-62.69,36.77-94.07,55.09-17.06,9.96-34.19,19.82-51.29,29.71-7.36,4.25-14.67-.09-14.68-8.72-.02-23.03,0-46.07,0-69.1,0-1.21,0-2.42,0-4.08-4.15,1.96-8.07,3.79-11.97,5.67-33.96,16.41-67.94,32.8-101.87,49.27-3.78,1.83-7.26,1.94-10.98-.08-4.13-2.25-8.38-4.27-13.04-6.62,11.89-5.87,23.36-11.63,34.92-17.22,34.65-16.76,69.33-33.45,104-50.15,1.28-.62,2.59-1.26,3.96-1.58,7.08-1.66,11.71,1.96,11.72,9.23.03,23.7,0,47.39,0,71.09,0,.43,0,.85,0,1.7,7.91-4.6,15.56-9.03,23.2-13.48,38.98-22.73,77.99-45.42,116.91-68.24,4.45-2.61,7.99-1.77,12.22.59,38.5,21.54,77.1,42.91,115.69,64.3,7.77,4.31,15.58,8.54,23.37,12.81.29.16.57.31.86.47.06.3.17.6.52.37.07-.05-.1-.48-.16-.74-.17-.2-.33-.4-.5-.6Z"/>
      <path class="cls-1" d="M124.87,57.54c-6.11,3.02-11.82,5.79-17.47,8.68-1.51.77-2.55-.09-3.67-.65-27.91-14.06-55.81-28.15-83.71-42.22-.94-.48-1.77-1.31-3.16-1.17,0,15.09,0,30.15,0,45.22,0,9.47.01,18.95,0,28.42,0,2.43-.16,4.83-1.83,6.84-2.05,2.47-4.66,3.81-7.83,3.2-3.48-.67-6.01-2.67-6.79-6.33-.27-1.28-.4-2.61-.4-3.92C0,67.85-.01,40.08.03,12.32c0-2.07.19-4.19.66-6.2C1.93.74,7.91-1.59,13.36,1.15c13.81,6.95,27.6,13.95,41.4,20.92,22.7,11.47,45.41,22.93,68.12,34.4.49.25.96.51,1.99,1.06Z"/>
      <path class="cls-1" d="M528.02,46.57c-3.51-.15-7.97-.75-11.84-3.4-4.07-2.78-4-6.82.07-9.62,6.28-4.31,19.97-4.2,26.16.2,3.74,2.65,3.79,6.46.14,9.24-2.75,2.1-8.4,3.6-14.54,3.58Z"/>
      <path class="cls-1" d="M300.7,46.81c-4.48.12-8.75-.72-12.61-3.05-4.77-2.88-4.79-7.69.18-10.21,8.25-4.19,16.71-4.24,24.91.15,4.83,2.58,4.78,7.09.09,9.97-3.84,2.36-8.11,3.23-12.57,3.14Z"/>
      <path class="cls-1" d="M561.03,80.3c-.29-.16-.57-.31-.86-.47.24-.17.48-.33.72-.5.17.2.33.4.5.6-.13.11-.25.24-.37.37Z"/>
      <path class="cls-1" d="M561.39,79.93c.06.26.23.69.16.74-.35.23-.47-.07-.52-.37.11-.13.23-.25.37-.37Z"/>
    </g>
  </g>
</svg>